<?xml version="1.0" encoding="UTF-8"?>
<svg xmlns="http://www.w3.org/2000/svg" viewBox="52 76 86 68" width="32" height="32" role="img" aria-label="Alpine Labs">
<rect x="52" y="76" width="86" height="68" fill="#07090d"/>
<g id="svgg"><path id="path0" d="M0.000 111.669 L 0.000 223.339 200.000 223.339 L 400.000 223.339 400.000 111.669 L 400.000 0.000 200.000 0.000 L 0.000 0.000 0.000 111.669 M89.895 86.234 C 90.834 87.686,91.673 89.077,95.800 96.036 C 96.566 97.326,97.938 99.587,98.851 101.061 C 99.764 102.535,100.707 104.143,100.948 104.634 C 101.338 105.432,103.333 108.636,104.135 109.753 C 104.529 110.301,104.854 110.094,105.446 108.918 C 105.704 108.405,106.640 106.879,107.524 105.528 C 108.409 104.176,109.370 102.644,109.661 102.122 C 110.633 100.374,110.201 99.827,117.463 112.004 C 118.855 114.338,120.214 116.549,120.484 116.918 C 120.754 117.286,121.715 118.894,122.621 120.491 C 123.526 122.088,125.062 124.651,126.033 126.186 C 127.004 127.722,128.132 129.639,128.539 130.446 C 128.946 131.254,129.640 132.387,130.081 132.965 C 131.417 134.716,133.018 138.027,132.642 138.265 C 132.470 138.374,129.514 138.466,126.075 138.470 C 122.635 138.474,114.947 138.570,108.989 138.684 C 103.032 138.798,91.977 138.948,84.422 139.017 C 76.868 139.085,67.044 139.202,62.592 139.275 C 52.848 139.436,53.127 139.594,56.056 135.567 C 56.548 134.891,57.573 133.239,58.335 131.894 C 59.097 130.550,59.982 129.143,60.302 128.768 C 60.877 128.092,61.862 126.580,62.710 125.070 C 63.533 123.605,65.037 121.207,65.987 119.843 C 66.508 119.094,67.418 117.627,68.009 116.583 C 68.599 115.539,70.006 113.277,71.136 111.558 C 72.265 109.838,73.369 108.079,73.588 107.649 C 73.807 107.219,75.109 105.159,76.482 103.071 C 77.855 100.983,79.263 98.780,79.610 98.176 C 79.958 97.571,81.265 95.511,82.515 93.597 C 83.765 91.683,85.164 89.464,85.623 88.666 C 88.188 84.209,88.478 84.043,89.895 86.234 M86.878 96.538 C 86.117 97.797,84.964 99.631,84.315 100.614 C 82.843 102.845,81.056 105.761,80.621 106.644 C 80.439 107.013,79.725 108.118,79.034 109.101 C 78.343 110.084,76.871 112.395,75.762 114.238 C 74.654 116.080,73.191 118.408,72.512 119.411 C 69.667 123.610,70.064 123.608,74.343 119.401 C 76.140 117.634,78.213 115.690,78.950 115.081 C 79.687 114.472,80.894 113.330,81.632 112.543 C 82.370 111.755,83.627 110.558,84.424 109.883 C 85.221 109.207,86.362 108.227,86.959 107.705 C 88.474 106.380,87.820 106.113,94.472 110.766 C 95.885 111.754,97.342 112.710,97.711 112.890 C 98.079 113.070,98.808 113.470,99.330 113.780 C 99.852 114.089,100.279 114.303,100.279 114.254 C 100.279 113.947,97.610 109.086,96.822 107.958 C 96.297 107.206,95.082 105.196,94.122 103.491 C 93.161 101.786,91.591 99.105,90.632 97.534 C 89.673 95.962,88.889 94.580,88.889 94.463 C 88.889 93.720,88.073 94.562,86.878 96.538 M173.534 94.919 C 173.812 95.091,173.872 127.501,173.594 127.779 C 173.479 127.894,172.238 127.960,170.835 127.925 L 168.286 127.862 168.228 111.558 C 168.196 102.591,168.219 95.126,168.279 94.970 C 168.390 94.680,173.074 94.635,173.534 94.919 M209.666 98.319 C 209.727 101.115,209.720 101.163,209.219 101.286 C 208.826 101.382,204.765 101.313,203.853 101.194 C 203.642 101.167,203.630 95.719,203.840 95.508 C 203.926 95.423,205.257 95.381,206.800 95.415 L 209.604 95.477 209.666 98.319 M283.224 101.396 C 283.301 104.405,283.493 111.361,283.650 116.852 C 283.882 124.972,283.882 126.901,283.649 127.181 C 283.340 127.554,278.864 127.706,278.646 127.352 C 278.482 127.088,277.771 96.521,277.919 96.134 C 278.026 95.857,278.489 95.809,280.565 95.861 L 283.082 95.924 283.224 101.396 M314.595 96.318 C 314.688 96.412,314.808 98.874,314.862 101.790 C 314.969 107.669,314.935 107.399,315.511 106.823 C 317.577 104.757,320.311 104.092,323.573 104.861 C 332.290 106.916,333.924 122.792,325.851 126.998 C 323.130 128.416,318.436 127.781,316.109 125.678 L 315.243 124.895 315.306 125.820 C 315.404 127.269,315.204 127.409,312.955 127.458 C 311.872 127.482,310.868 127.429,310.724 127.340 C 310.539 127.226,310.392 124.785,310.222 119.033 C 310.089 114.553,309.939 109.832,309.887 108.543 C 309.496 98.777,309.503 96.301,309.922 96.201 C 310.599 96.040,314.412 96.135,314.595 96.318 M157.342 104.010 C 160.348 104.775,162.700 106.783,163.544 109.306 C 163.672 109.689,163.851 113.758,163.948 118.481 C 164.044 123.149,164.154 127.169,164.194 127.415 C 164.262 127.840,164.141 127.862,161.697 127.862 L 159.129 127.862 158.820 126.561 L 158.512 125.260 157.704 126.024 C 155.876 127.751,153.751 128.482,150.530 128.493 C 144.945 128.513,141.639 125.569,141.864 120.778 C 142.110 115.531,145.858 113.276,154.545 113.147 L 158.225 113.093 158.154 112.108 C 157.943 109.193,155.512 107.716,151.888 108.299 C 150.015 108.601,148.297 109.956,148.297 111.131 C 148.297 111.641,147.915 111.686,145.810 111.430 C 142.930 111.080,142.625 110.942,142.799 110.068 C 143.793 105.102,150.560 102.283,157.342 104.010 M194.520 104.625 C 203.347 108.375,203.000 124.804,194.033 127.726 C 190.603 128.844,186.811 128.184,184.583 126.083 C 184.122 125.648,183.707 125.293,183.659 125.293 C 183.611 125.293,183.641 127.751,183.725 130.756 C 183.845 135.044,183.817 136.292,183.592 136.563 C 183.167 137.075,178.334 137.067,178.137 136.553 C 177.783 135.631,177.993 104.350,178.354 104.211 C 178.549 104.137,179.547 104.076,180.572 104.076 C 182.886 104.076,183.138 104.268,183.138 106.037 L 183.138 107.296 184.087 106.391 C 186.851 103.755,190.870 103.075,194.520 104.625 M229.832 104.810 C 232.507 106.101,233.903 108.331,234.269 111.895 C 234.436 113.523,234.641 125.734,234.527 127.247 C 234.511 127.453,233.834 127.527,231.948 127.527 L 229.389 127.527 229.271 126.801 C 229.205 126.401,229.118 122.959,229.077 119.151 C 228.978 109.922,228.464 108.766,224.456 108.766 C 220.112 108.766,219.319 110.573,219.319 120.474 L 219.319 127.518 218.816 127.644 C 218.540 127.713,217.359 127.740,216.192 127.704 L 214.070 127.638 213.902 125.628 C 213.809 124.523,213.759 119.296,213.790 114.015 L 213.847 104.411 215.935 104.346 C 218.522 104.267,218.649 104.354,218.649 106.215 L 218.649 107.630 219.704 106.502 C 222.029 104.017,226.603 103.253,229.832 104.810 M250.653 104.310 C 255.580 105.221,258.585 109.181,259.006 115.320 C 259.182 117.883,259.856 117.692,250.627 117.696 L 242.739 117.700 242.894 118.202 C 244.069 122.004,245.633 123.378,248.800 123.389 C 251.248 123.397,252.234 122.803,253.608 120.488 C 253.824 120.124,253.972 120.122,256.039 120.449 C 258.786 120.884,258.822 120.919,258.167 122.532 C 255.477 129.160,244.603 129.941,239.924 123.841 C 238.197 121.589,237.534 119.327,237.534 115.690 C 237.534 107.744,243.102 102.914,250.653 104.310 M209.496 110.106 C 209.560 113.238,209.610 118.465,209.608 121.720 L 209.604 127.638 207.053 127.702 C 205.163 127.749,204.456 127.691,204.321 127.478 C 204.100 127.130,204.067 104.662,204.288 104.441 C 204.373 104.356,205.554 104.314,206.912 104.348 L 209.380 104.411 209.496 110.106 M300.614 104.994 C 303.259 105.698,304.411 106.716,305.752 109.532 C 306.248 110.573,306.288 110.994,306.476 117.126 C 306.586 120.697,306.804 124.392,306.960 125.339 C 307.317 127.493,307.285 127.527,304.829 127.527 C 302.597 127.527,302.302 127.360,302.067 125.968 C 301.885 124.893,301.952 124.907,301.042 125.758 C 295.997 130.470,286.767 127.283,286.767 120.828 C 286.767 115.685,290.278 113.474,298.468 113.461 L 301.123 113.456 300.988 112.318 C 300.504 108.225,293.609 107.156,292.571 111.012 C 292.273 112.117,292.003 112.183,289.595 111.747 C 287.265 111.325,287.200 111.274,287.469 110.074 C 288.475 105.598,294.349 103.328,300.614 104.994 M346.015 105.477 C 348.551 106.638,351.374 110.360,350.344 111.185 C 349.730 111.677,346.096 111.981,345.848 111.561 C 344.629 109.495,343.505 108.766,341.541 108.766 C 339.806 108.766,338.677 109.402,338.325 110.578 C 337.778 112.403,338.848 113.225,342.490 113.778 C 348.071 114.626,350.098 115.872,351.012 119.014 C 352.544 124.286,348.413 128.069,341.538 127.689 C 336.873 127.432,332.775 124.469,332.775 121.353 C 332.775 120.785,332.869 120.748,335.232 120.383 C 337.399 120.049,337.429 120.057,337.825 121.047 C 338.603 122.990,339.949 123.613,343.064 123.472 C 345.253 123.372,346.175 122.662,346.175 121.076 C 346.175 119.377,344.980 118.648,341.374 118.146 C 334.619 117.207,331.556 113.503,333.616 108.766 C 335.141 105.258,341.724 103.512,346.015 105.477 M187.158 109.120 C 181.487 112.350,182.759 122.704,188.917 123.433 C 192.832 123.897,195.083 121.192,195.083 116.025 C 195.083 110.106,191.267 106.781,187.158 109.120 M246.690 108.705 C 245.301 109.059,244.091 110.234,243.457 111.845 C 242.687 113.804,242.314 113.668,248.348 113.634 L 253.702 113.603 253.567 113.066 C 252.719 109.686,249.889 107.891,246.690 108.705 M318.253 109.492 C 316.324 110.468,315.174 113.376,315.417 116.663 C 316.083 125.668,325.759 125.593,325.702 116.583 C 325.667 110.974,322.077 107.557,318.253 109.492 M109.519 112.277 C 108.033 114.582,105.863 118.199,105.863 118.372 C 105.863 118.582,109.147 120.935,111.039 122.080 C 111.816 122.550,113.356 123.594,114.461 124.398 C 118.800 127.557,120.461 128.643,120.951 128.643 C 121.352 128.643,120.616 127.134,118.937 124.511 C 117.914 122.915,116.451 120.503,115.685 119.151 C 114.919 117.800,114.101 116.360,113.868 115.951 C 113.178 114.742,110.805 111.267,110.569 111.121 C 110.449 111.047,109.977 111.567,109.519 112.277 M274.484 114.827 C 274.663 117.921,275.423 117.607,267.951 117.525 L 262.200 117.462 262.200 115.120 L 262.200 112.779 268.286 112.838 L 274.372 112.898 274.484 114.827 M152.317 117.487 C 149.197 117.855,147.887 118.679,147.693 120.394 C 147.362 123.329,150.251 124.788,154.144 123.650 C 155.398 123.284,157.452 121.625,157.455 120.976 C 157.456 120.832,157.591 120.456,157.756 120.141 C 157.921 119.825,158.125 119.046,158.209 118.410 L 158.363 117.253 156.066 117.285 C 154.802 117.302,153.116 117.393,152.317 117.487 M82.517 118.988 C 81.653 119.815,78.538 122.753,75.595 125.516 C 68.818 131.880,67.405 133.307,67.588 133.601 C 67.754 133.871,93.475 133.735,93.747 133.463 C 93.834 133.376,93.716 132.984,93.484 132.593 C 93.252 132.202,92.571 130.989,91.970 129.897 C 91.370 128.805,90.556 127.449,90.163 126.884 C 89.102 125.359,87.105 122.083,87.104 121.865 C 87.101 121.451,84.613 117.477,84.359 117.480 C 84.209 117.482,83.380 118.160,82.517 118.988 M294.249 117.927 C 292.534 118.473,292.127 118.967,292.127 120.506 C 292.127 122.624,292.777 123.340,294.958 123.629 C 298.516 124.101,300.637 122.367,301.183 118.537 L 301.335 117.476 298.462 117.488 C 296.277 117.497,295.268 117.602,294.249 117.927 M384.345 201.023 C 385.010 203.241,387.086 205.416,389.410 206.327 C 390.835 206.886,390.921 207.321,389.680 207.692 C 387.459 208.356,385.019 210.799,384.352 213.024 C 383.978 214.274,383.498 214.177,382.965 212.742 C 382.170 210.601,380.127 208.560,377.981 207.763 C 376.598 207.250,376.595 206.873,377.969 206.333 C 380.600 205.300,382.274 203.476,383.321 200.503 C 383.561 199.823,384.062 200.078,384.345 201.023 " stroke="none" fill="#040b10" fill-rule="evenodd"></path><path id="path1" d="M168.452 111.390 L 168.509 127.638 170.966 127.638 L 173.423 127.638 173.480 111.390 L 173.537 95.142 170.966 95.142 L 168.395 95.142 168.452 111.390 M204.005 95.883 C 203.943 96.044,203.921 97.255,203.956 98.574 L 204.020 100.972 206.644 101.042 C 208.457 101.091,209.277 101.035,209.296 100.863 C 209.319 100.654,209.314 99.655,209.273 95.980 C 209.267 95.469,204.200 95.376,204.005 95.883 M278.230 96.203 C 278.125 96.434,278.469 116.993,278.673 122.613 L 278.839 127.192 281.020 127.255 C 282.847 127.309,283.224 127.262,283.338 126.964 C 283.467 126.627,283.123 108.108,282.834 99.888 L 282.699 96.036 280.503 96.036 C 279.295 96.036,278.272 96.111,278.230 96.203 M310.081 96.523 C 309.912 96.796,309.904 96.254,310.336 113.345 C 310.514 120.346,310.660 126.301,310.662 126.577 C 310.664 127.061,310.740 127.080,312.659 127.080 C 314.919 127.080,315.076 126.950,314.798 125.307 C 314.579 124.006,315.007 123.993,316.199 125.263 C 318.267 127.466,322.406 128.195,325.353 126.877 C 330.420 124.612,332.154 116.147,328.877 109.681 C 326.253 104.501,319.519 103.124,315.797 107.005 C 314.425 108.436,314.507 108.723,314.405 102.126 C 314.359 99.150,314.277 96.676,314.224 96.630 C 313.959 96.398,310.218 96.302,310.081 96.523 M149.743 104.091 C 148.042 104.497,145.593 105.912,144.652 107.031 C 143.745 108.111,142.824 110.298,143.141 110.620 C 143.277 110.759,146.926 111.422,147.662 111.442 C 147.742 111.444,148.118 110.896,148.498 110.223 C 149.504 108.440,150.461 107.986,153.210 107.985 C 156.664 107.984,158.196 109.239,158.387 112.228 L 158.459 113.345 153.992 113.491 C 144.414 113.805,140.512 117.151,142.381 123.444 C 143.906 128.580,153.198 130.026,157.505 125.798 C 158.719 124.606,158.718 124.606,159.013 126.165 C 159.322 127.794,159.248 127.750,161.660 127.750 L 163.830 127.750 163.754 119.542 C 163.658 109.063,163.311 107.595,160.474 105.643 C 158.283 104.135,152.850 103.350,149.743 104.091 M187.407 104.536 C 186.092 105.002,185.156 105.642,184.009 106.859 C 183.006 107.921,182.945 107.883,182.869 106.142 L 182.803 104.634 180.514 104.571 L 178.224 104.507 178.224 120.242 C 178.224 128.896,178.285 136.136,178.360 136.330 C 178.472 136.622,178.916 136.683,180.928 136.683 L 183.361 136.683 183.361 130.635 L 183.361 124.586 184.689 125.787 C 190.016 130.608,198.311 127.545,200.219 120.054 C 202.691 110.348,195.516 101.657,187.407 104.536 M223.088 104.610 C 221.729 105.003,220.199 106.076,219.348 107.233 C 218.564 108.300,218.467 108.197,218.375 106.198 L 218.314 104.858 216.136 104.794 L 213.959 104.730 213.960 114.174 C 213.961 119.368,214.026 124.447,214.105 125.461 L 214.248 127.303 216.616 127.303 L 218.984 127.303 218.984 120.324 C 218.984 112.607,219.086 111.926,220.501 110.208 C 222.680 107.566,227.270 107.968,228.728 110.929 C 229.246 111.981,229.260 112.172,229.369 119.598 L 229.481 127.192 231.909 127.255 L 234.338 127.319 234.225 119.215 C 234.104 110.487,234.042 109.991,232.815 107.795 C 231.258 105.010,226.778 103.543,223.088 104.610 M247.125 104.443 C 239.613 105.309,235.556 113.187,238.610 120.979 C 241.870 129.299,254.244 130.287,257.866 122.517 C 258.515 121.124,258.570 121.181,256.133 120.708 L 254.077 120.308 253.727 120.806 C 251.752 123.624,249.478 124.395,246.470 123.270 C 244.534 122.545,242.546 119.711,242.546 117.676 C 242.546 117.562,246.019 117.476,250.618 117.476 L 258.690 117.476 258.572 115.075 C 258.246 108.429,253.552 103.634,248.058 104.333 C 247.913 104.351,247.493 104.401,247.125 104.443 M205.416 104.697 L 204.355 104.770 204.355 116.033 L 204.355 127.295 204.858 127.420 C 205.134 127.490,206.255 127.517,207.350 127.481 L 209.339 127.415 209.288 116.139 C 209.259 109.937,209.218 104.848,209.197 104.829 C 209.079 104.730,206.327 104.634,205.416 104.697 M293.802 104.881 C 290.696 105.634,288.546 107.460,287.783 109.995 C 287.432 111.162,287.382 111.108,289.097 111.425 C 291.485 111.866,291.719 111.807,292.351 110.609 C 294.451 106.627,301.000 108.133,301.331 112.674 L 301.396 113.568 297.822 113.699 C 289.756 113.994,286.728 116.107,287.030 121.229 C 287.270 125.316,289.909 127.415,294.807 127.415 C 298.151 127.415,299.323 127.009,300.928 125.293 C 302.067 124.075,302.120 124.084,302.311 125.522 C 302.521 127.104,302.584 127.149,304.595 127.172 C 306.818 127.196,306.759 127.267,306.464 124.907 C 306.329 123.830,306.159 120.586,306.087 117.700 C 305.873 109.172,304.953 106.881,301.146 105.408 C 299.859 104.910,295.093 104.568,293.802 104.881 M339.587 105.112 C 335.368 105.968,333.445 107.922,333.445 111.353 C 333.445 115.052,335.696 116.963,341.050 117.808 C 345.922 118.576,347.389 119.789,346.249 122.105 C 344.657 125.340,338.425 124.264,337.184 120.541 C 337.113 120.328,333.303 120.893,333.041 121.156 C 332.840 121.357,333.714 123.309,334.425 124.246 C 336.079 126.426,338.303 127.315,342.108 127.318 C 348.192 127.323,351.216 124.907,350.805 120.370 C 350.476 116.744,348.496 115.107,343.384 114.236 C 338.521 113.408,337.688 112.970,337.688 111.240 C 337.688 107.788,344.418 107.519,345.837 110.915 C 346.190 111.759,346.269 111.773,348.408 111.365 C 350.124 111.038,350.233 110.819,349.440 109.287 C 347.744 106.006,343.674 104.282,339.587 105.112 M192.219 108.984 C 196.886 111.661,196.729 120.905,191.979 123.153 C 188.881 124.618,185.337 123.111,183.992 119.756 C 181.304 113.052,186.790 105.871,192.219 108.984 M250.740 108.863 C 252.311 109.595,254.507 112.960,253.846 113.621 C 253.699 113.768,242.644 113.804,242.678 113.657 C 242.690 113.608,242.772 113.178,242.861 112.701 C 243.518 109.203,247.404 107.310,250.740 108.863 M322.229 109.113 C 326.990 111.102,327.427 121.006,322.846 123.087 C 318.627 125.003,315.009 121.580,315.027 115.690 C 315.044 110.345,318.225 107.440,322.229 109.113 M262.423 115.099 L 262.423 117.189 264.377 117.306 C 267.398 117.486,273.801 117.355,274.049 117.107 C 274.183 116.972,274.211 116.133,274.120 114.948 L 273.971 113.009 268.197 113.009 L 262.423 113.009 262.423 115.099 M158.536 117.688 C 159.119 121.818,153.508 125.613,149.373 123.885 C 146.735 122.783,146.672 119.196,149.267 117.940 C 151.366 116.924,158.401 116.733,158.536 117.688 M301.454 118.679 C 300.970 124.708,291.681 126.378,291.681 120.437 C 291.681 118.008,293.179 117.322,298.579 117.277 L 301.569 117.253 301.454 118.679 " stroke="none" fill="#edefec" fill-rule="evenodd"></path><path id="path2" d="M86.996 87.381 C 84.663 90.940,80.275 97.869,79.811 98.726 C 79.581 99.150,78.530 100.804,77.475 102.401 C 76.421 103.998,74.971 106.259,74.254 107.426 C 73.537 108.593,72.100 110.854,71.061 112.451 C 70.021 114.048,68.874 115.907,68.512 116.583 C 68.150 117.259,67.124 118.917,66.232 120.268 C 65.340 121.619,63.987 123.760,63.226 125.025 C 62.465 126.290,61.144 128.364,60.290 129.634 C 59.437 130.904,58.738 131.994,58.738 132.057 C 58.738 132.229,57.100 134.890,55.836 136.771 C 55.221 137.687,54.718 138.547,54.718 138.683 C 54.718 138.861,57.588 138.896,65.047 138.810 C 70.729 138.745,85.477 138.590,97.822 138.465 C 110.168 138.341,121.826 138.193,123.730 138.137 C 125.634 138.080,128.374 138.032,129.819 138.029 L 132.446 138.023 131.743 136.628 C 131.356 135.860,130.619 134.578,130.106 133.780 C 129.592 132.982,128.968 131.977,128.719 131.547 C 126.959 128.511,121.133 118.777,118.692 114.796 C 117.073 112.155,115.232 109.090,114.601 107.984 C 112.789 104.807,110.908 101.854,110.664 101.804 C 110.542 101.778,110.240 102.067,109.994 102.447 C 107.893 105.690,106.752 107.506,106.086 108.667 C 104.850 110.822,104.825 110.854,104.457 110.713 C 104.268 110.640,103.677 109.866,103.145 108.993 C 102.613 108.119,101.901 106.982,101.563 106.466 C 101.225 105.950,100.745 105.126,100.496 104.634 C 100.247 104.143,99.352 102.635,98.508 101.284 C 97.663 99.933,96.435 97.923,95.778 96.817 C 95.121 95.712,94.462 94.606,94.314 94.361 C 94.165 94.115,93.972 93.763,93.885 93.579 C 93.333 92.413,88.746 85.092,88.567 85.092 C 88.528 85.092,87.822 86.122,86.996 87.381 M89.369 94.543 C 89.630 95.057,90.565 96.633,91.448 98.046 C 92.330 99.458,93.411 101.267,93.850 102.066 C 94.288 102.864,95.085 104.240,95.621 105.123 C 101.089 114.140,102.078 115.913,101.641 115.913 C 101.456 115.913,95.413 111.906,90.578 108.577 C 89.480 107.821,88.493 107.203,88.385 107.203 C 88.023 107.203,81.801 112.874,75.390 119.048 C 71.768 122.536,69.273 124.735,69.115 124.577 C 68.946 124.409,70.885 121.008,72.582 118.495 C 73.416 117.259,74.729 115.193,75.500 113.903 C 76.270 112.613,77.570 110.553,78.387 109.324 C 79.205 108.096,80.211 106.488,80.623 105.751 C 81.035 105.014,82.112 103.279,83.016 101.895 C 83.919 100.511,85.272 98.350,86.021 97.093 C 88.462 92.997,88.550 92.930,89.369 94.543 M112.281 112.619 C 113.896 115.230,114.580 116.369,116.671 119.933 C 118.234 122.596,118.750 123.452,119.973 125.405 C 121.097 127.201,122.613 129.882,122.613 130.075 C 122.613 130.490,118.545 127.905,114.030 124.622 C 112.933 123.824,111.405 122.769,110.635 122.278 C 107.312 120.157,105.416 118.779,105.416 118.484 C 105.416 117.969,110.233 110.106,110.548 110.106 C 110.646 110.106,111.426 111.237,112.281 112.619 M84.919 117.197 C 85.108 117.412,85.936 118.794,86.759 120.268 C 87.583 121.742,88.849 123.903,89.575 125.070 C 90.300 126.237,91.263 127.845,91.715 128.643 C 92.167 129.442,93.022 130.894,93.615 131.871 C 94.209 132.848,94.610 133.732,94.507 133.835 C 94.234 134.107,66.332 134.352,66.332 134.082 C 66.332 133.873,68.714 131.486,72.473 127.928 C 73.456 126.997,74.719 125.798,75.279 125.262 C 75.839 124.726,77.487 123.183,78.942 121.831 C 80.397 120.480,82.140 118.797,82.815 118.090 C 84.141 116.705,84.393 116.598,84.919 117.197 " stroke="none" fill="#4a9eff" fill-rule="evenodd"></path><path id="path3" d="M87.354 85.916 C 86.861 86.630,86.082 87.867,85.623 88.666 C 85.164 89.464,83.765 91.683,82.515 93.597 C 81.265 95.511,79.958 97.571,79.610 98.176 C 79.263 98.780,77.855 100.983,76.482 103.071 C 75.109 105.159,73.807 107.219,73.588 107.649 C 73.369 108.079,72.265 109.838,71.136 111.558 C 70.006 113.277,68.599 115.539,68.009 116.583 C 67.418 117.627,66.508 119.094,65.987 119.843 C 65.037 121.207,63.533 123.605,62.710 125.070 C 61.862 126.580,60.877 128.092,60.302 128.768 C 59.982 129.143,59.097 130.550,58.335 131.894 C 57.573 133.239,56.548 134.891,56.056 135.567 C 53.146 139.568,52.962 139.449,61.813 139.281 C 65.834 139.205,76.661 139.080,85.874 139.004 C 95.087 138.928,102.674 138.814,102.736 138.750 C 102.870 138.612,69.452 138.860,60.692 139.062 C 53.390 139.231,53.801 139.471,55.906 136.265 C 56.683 135.082,57.703 133.462,58.174 132.663 C 58.644 131.865,59.584 130.375,60.261 129.353 C 60.939 128.331,62.356 126.102,63.410 124.398 C 69.380 114.751,74.334 106.880,78.557 100.333 C 79.449 98.950,80.179 97.770,80.179 97.710 C 80.179 97.649,80.816 96.620,81.594 95.422 C 84.179 91.445,85.012 90.128,85.654 89.001 C 86.004 88.386,86.560 87.532,86.889 87.102 C 87.218 86.672,87.655 85.994,87.859 85.595 C 88.295 84.742,88.689 84.677,89.215 85.371 C 89.593 85.872,89.593 85.872,89.271 85.315 C 88.733 84.387,88.319 84.517,87.354 85.916 M89.831 86.432 C 90.010 86.739,90.915 88.247,91.843 89.782 C 93.363 92.300,95.724 96.331,96.356 97.487 C 96.490 97.733,97.062 98.638,97.627 99.497 C 98.192 100.357,99.182 101.991,99.827 103.127 C 100.472 104.263,101.036 105.193,101.081 105.193 C 101.271 105.193,100.511 103.788,98.904 101.173 C 97.960 99.637,96.563 97.326,95.799 96.036 C 91.595 88.941,90.355 86.901,89.952 86.413 L 89.506 85.874 89.831 86.432 M86.868 96.152 C 86.075 97.445,84.888 99.329,84.229 100.340 C 83.570 101.351,82.174 103.585,81.126 105.304 C 80.079 107.024,78.752 109.135,78.177 109.994 C 77.602 110.854,76.594 112.462,75.935 113.568 C 75.277 114.673,74.022 116.683,73.145 118.035 C 71.217 121.008,71.192 121.050,71.325 121.050 C 71.490 121.050,74.113 117.012,76.039 113.791 C 76.995 112.194,78.342 110.084,79.033 109.101 C 79.725 108.118,80.439 107.013,80.621 106.644 C 81.056 105.761,82.843 102.845,84.315 100.614 C 84.964 99.631,86.117 97.797,86.878 96.538 C 87.640 95.279,88.409 94.249,88.589 94.249 C 88.768 94.249,88.853 94.149,88.777 94.026 C 88.507 93.589,88.292 93.830,86.868 96.152 M88.889 94.530 C 88.889 94.610,89.673 95.962,90.632 97.534 C 91.591 99.105,93.161 101.786,94.122 103.491 C 95.082 105.196,96.297 107.206,96.822 107.958 C 97.610 109.086,100.279 113.947,100.279 114.254 C 100.279 114.303,99.852 114.089,99.330 113.780 C 98.808 113.470,98.079 113.070,97.711 112.890 C 97.342 112.710,95.885 111.754,94.472 110.766 C 87.820 106.113,88.474 106.380,86.959 107.705 C 86.362 108.227,85.221 109.207,84.424 109.883 C 83.627 110.558,82.370 111.755,81.632 112.543 C 80.894 113.330,79.687 114.472,78.950 115.081 C 78.213 115.690,76.140 117.634,74.343 119.401 C 71.019 122.669,70.254 123.226,70.930 121.887 C 71.421 120.914,70.965 121.383,70.362 122.472 C 69.312 124.367,69.994 123.887,74.653 119.448 C 76.648 117.548,78.883 115.450,79.620 114.786 C 80.357 114.123,81.865 112.723,82.972 111.675 C 87.689 107.210,88.411 106.688,89.073 107.269 C 89.279 107.450,90.452 108.282,91.681 109.117 C 98.462 113.730,101.396 115.639,101.396 115.436 C 101.396 115.161,99.423 111.768,95.332 105.011 C 94.491 103.622,93.802 102.445,93.802 102.396 C 93.802 102.277,89.310 94.863,89.075 94.595 C 88.973 94.479,88.889 94.449,88.889 94.530 M168.320 94.863 C 168.263 94.955,168.734 95.002,169.368 94.967 C 171.421 94.853,171.671 94.763,170.030 94.729 C 169.147 94.711,168.377 94.771,168.320 94.863 M173.609 96.482 C 173.609 97.404,173.649 97.781,173.697 97.320 C 173.745 96.859,173.745 96.106,173.697 95.645 C 173.649 95.184,173.609 95.561,173.609 96.482 M203.835 95.527 C 203.775 95.622,205.021 95.670,206.603 95.633 L 209.478 95.564 209.551 98.369 L 209.624 101.173 209.614 98.325 L 209.604 95.477 206.773 95.415 C 205.217 95.381,203.894 95.431,203.835 95.527 M277.934 96.095 C 277.872 96.258,277.852 97.794,277.890 99.508 L 277.959 102.624 278.008 99.330 L 278.057 96.036 280.506 96.036 L 282.954 96.036 283.031 98.158 L 283.108 100.280 283.095 98.102 L 283.082 95.924 280.565 95.861 C 278.631 95.812,278.022 95.866,277.934 96.095 M312.510 96.196 C 312.850 96.247,313.352 96.246,313.627 96.193 C 313.901 96.140,313.624 96.098,313.009 96.100 C 312.395 96.101,312.171 96.145,312.510 96.196 M309.629 98.381 C 309.630 99.609,309.667 100.083,309.713 99.434 C 309.758 98.785,309.757 97.780,309.712 97.201 C 309.666 96.621,309.629 97.152,309.629 98.381 M314.481 97.878 C 314.556 98.769,314.636 101.302,314.660 103.508 C 314.705 107.699,314.716 107.794,315.140 107.532 C 315.308 107.429,315.321 107.320,315.178 107.231 C 315.043 107.146,314.926 105.142,314.883 102.178 C 314.810 97.200,314.748 96.259,314.489 96.259 C 314.410 96.259,314.406 96.988,314.481 97.878 M173.615 100.279 C 173.615 101.446,173.652 101.924,173.699 101.340 C 173.745 100.757,173.745 99.802,173.699 99.218 C 173.652 98.635,173.615 99.112,173.615 100.279 M203.749 100.168 C 203.751 100.782,203.794 101.006,203.845 100.667 C 203.897 100.327,203.895 99.825,203.842 99.550 C 203.789 99.276,203.747 99.553,203.749 100.168 M109.661 102.122 C 109.370 102.644,108.409 104.176,107.524 105.528 C 106.640 106.879,105.704 108.405,105.446 108.918 C 104.603 110.593,104.616 110.599,102.726 107.552 C 102.121 106.578,101.509 105.673,101.367 105.542 C 101.042 105.245,101.208 105.562,102.177 107.091 C 102.566 107.705,103.213 108.735,103.615 109.380 C 104.506 110.811,104.601 110.818,105.366 109.520 C 108.007 105.040,110.370 101.396,110.634 101.396 C 110.778 101.396,111.226 101.949,111.630 102.624 C 112.034 103.300,112.417 103.853,112.482 103.853 C 112.588 103.853,112.153 103.074,111.267 101.675 C 110.784 100.914,110.250 101.062,109.661 102.122 M207.203 101.334 C 207.602 101.384,208.255 101.384,208.654 101.334 C 209.054 101.285,208.727 101.244,207.929 101.244 C 207.130 101.244,206.803 101.285,207.203 101.334 M309.856 105.304 C 309.857 106.778,309.893 107.352,309.937 106.580 C 309.980 105.807,309.980 104.601,309.936 103.900 C 309.892 103.198,309.856 103.830,309.856 105.304 M152.823 103.566 C 153.162 103.618,153.665 103.616,153.939 103.563 C 154.214 103.510,153.936 103.468,153.322 103.470 C 152.708 103.471,152.483 103.515,152.823 103.566 M150.586 103.783 C 150.801 103.839,151.153 103.839,151.368 103.783 C 151.583 103.727,151.407 103.681,150.977 103.681 C 150.547 103.681,150.371 103.727,150.586 103.783 M155.276 103.783 C 155.491 103.839,155.843 103.839,156.058 103.783 C 156.273 103.727,156.097 103.681,155.667 103.681 C 155.237 103.681,155.061 103.727,155.276 103.783 M112.812 104.578 C 112.957 104.855,113.413 105.611,113.825 106.258 C 114.236 106.905,114.573 107.478,114.573 107.532 C 114.573 107.585,115.901 109.820,117.524 112.497 C 119.146 115.174,121.250 118.656,122.198 120.234 C 123.146 121.812,123.995 123.169,124.085 123.249 C 124.293 123.435,124.300 123.448,122.494 120.268 C 121.656 118.794,120.752 117.286,120.484 116.918 C 120.052 116.324,118.194 113.253,114.032 106.253 C 112.870 104.299,112.130 103.283,112.812 104.578 M179.397 104.240 C 179.980 104.286,180.935 104.286,181.519 104.240 C 182.102 104.194,181.625 104.156,180.458 104.156 C 179.291 104.156,178.814 104.194,179.397 104.240 M247.515 104.239 C 247.976 104.287,248.730 104.287,249.190 104.239 C 249.651 104.190,249.274 104.151,248.353 104.151 C 247.432 104.151,247.055 104.190,247.515 104.239 M158.794 104.634 C 159.101 104.810,159.453 104.953,159.576 104.953 C 159.698 104.953,159.548 104.810,159.241 104.634 C 158.934 104.459,158.582 104.315,158.459 104.315 C 158.336 104.315,158.487 104.459,158.794 104.634 M178.107 120.380 C 178.107 129.285,178.135 132.929,178.169 128.476 C 178.202 124.023,178.202 116.736,178.169 112.284 C 178.135 107.831,178.107 111.474,178.107 120.380 M204.282 104.460 C 204.222 104.556,205.318 104.603,206.716 104.565 L 209.259 104.496 209.327 108.976 L 209.394 113.456 209.387 108.934 L 209.380 104.411 206.885 104.348 C 205.513 104.313,204.341 104.364,204.282 104.460 M213.838 104.537 C 213.757 104.668,213.751 104.836,213.825 104.910 C 213.898 104.983,213.959 104.926,213.959 104.783 C 213.959 104.219,218.187 104.448,218.419 105.025 C 218.542 105.333,218.626 105.394,218.635 105.181 C 218.668 104.362,214.308 103.776,213.838 104.537 M251.360 104.643 C 251.970 104.811,252.507 104.910,252.554 104.863 C 252.665 104.751,251.016 104.296,250.586 104.320 C 250.402 104.331,250.750 104.476,251.360 104.643 M283.286 108.096 C 283.286 110.246,283.319 111.125,283.360 110.050 C 283.401 108.975,283.401 107.217,283.360 106.142 C 283.319 105.067,283.286 105.946,283.286 108.096 M296.318 104.457 C 296.595 104.511,296.997 104.509,297.211 104.453 C 297.424 104.397,297.197 104.353,296.706 104.356 C 296.214 104.358,296.040 104.404,296.318 104.457 M320.207 104.684 C 320.604 104.733,321.307 104.734,321.771 104.686 C 322.234 104.637,321.910 104.597,321.050 104.596 C 320.190 104.595,319.811 104.634,320.207 104.684 M340.648 104.910 C 341.231 104.956,342.186 104.956,342.769 104.910 C 343.353 104.864,342.875 104.826,341.709 104.826 C 340.542 104.826,340.064 104.864,340.648 104.910 M195.533 105.231 C 195.779 105.367,196.136 105.590,196.326 105.726 C 196.516 105.863,196.435 105.748,196.146 105.472 C 195.857 105.195,195.500 104.972,195.353 104.976 C 195.207 104.980,195.288 105.094,195.533 105.231 M278.148 108.543 C 278.148 110.570,278.182 111.399,278.223 110.385 C 278.264 109.372,278.264 107.714,278.223 106.700 C 278.182 105.687,278.148 106.516,278.148 108.543 M219.869 106.365 L 218.760 107.538 219.933 106.429 C 221.023 105.400,221.208 105.193,221.041 105.193 C 221.006 105.193,220.478 105.720,219.869 106.365 M302.127 105.684 C 304.743 107.090,305.951 109.444,306.209 113.635 L 306.384 116.471 306.329 113.549 C 306.246 109.180,304.487 106.031,301.731 105.316 C 301.415 105.234,301.588 105.394,302.127 105.684 M325.405 105.669 C 331.641 109.458,332.783 120.168,327.514 125.454 C 326.753 126.218,326.344 126.732,326.605 126.597 C 330.922 124.361,332.497 114.920,329.429 109.667 C 328.181 107.529,325.789 105.194,324.846 105.194 C 324.724 105.194,324.975 105.408,325.405 105.669 M346.399 105.877 C 348.897 107.254,351.384 111.169,349.805 111.240 C 349.559 111.251,349.520 111.301,349.700 111.373 C 350.220 111.582,350.620 111.030,350.430 110.367 C 349.894 108.500,348.281 106.599,346.430 105.655 C 345.037 104.945,345.014 105.114,346.399 105.877 M161.465 106.365 C 162.012 106.949,162.490 107.426,162.526 107.426 C 162.693 107.426,162.516 107.225,161.530 106.300 L 160.469 105.304 161.465 106.365 M184.031 106.421 C 183.489 106.974,183.095 107.426,183.157 107.426 C 183.218 107.426,183.712 106.974,184.255 106.421 C 184.797 105.868,185.191 105.416,185.129 105.416 C 185.068 105.416,184.574 105.868,184.031 106.421 M254.297 105.900 C 254.651 106.166,255.249 106.644,255.626 106.961 C 256.002 107.278,255.807 107.060,255.192 106.477 C 254.578 105.893,253.980 105.416,253.864 105.416 C 253.748 105.416,253.943 105.634,254.297 105.900 M213.837 116.136 C 213.837 120.988,213.867 122.973,213.903 120.547 C 213.939 118.121,213.939 114.151,213.903 111.725 C 213.867 109.299,213.837 111.284,213.837 116.136 M333.978 107.991 C 333.775 108.302,333.648 108.597,333.698 108.647 C 333.748 108.697,333.958 108.442,334.165 108.082 C 334.626 107.279,334.489 107.212,333.978 107.991 M151.870 108.096 C 151.117 108.255,151.113 108.261,151.759 108.264 C 152.127 108.265,152.730 108.190,153.099 108.096 C 154.026 107.860,152.991 107.860,151.870 108.096 M173.612 109.659 C 173.612 110.704,173.651 111.131,173.698 110.609 C 173.745 110.087,173.745 109.232,173.698 108.710 C 173.651 108.188,173.612 108.615,173.612 109.659 M189.112 108.477 C 189.389 108.530,189.841 108.530,190.117 108.477 C 190.394 108.424,190.168 108.380,189.615 108.380 C 189.062 108.380,188.836 108.424,189.112 108.477 M309.823 108.989 C 309.823 109.419,309.869 109.595,309.925 109.380 C 309.981 109.165,309.981 108.814,309.925 108.599 C 309.869 108.384,309.823 108.559,309.823 108.989 M224.068 108.703 C 224.407 108.754,224.910 108.753,225.185 108.700 C 225.459 108.647,225.181 108.605,224.567 108.607 C 223.953 108.608,223.728 108.652,224.068 108.703 M295.868 108.704 C 296.267 108.754,296.921 108.754,297.320 108.704 C 297.719 108.655,297.393 108.614,296.594 108.614 C 295.796 108.614,295.469 108.655,295.868 108.704 M149.263 109.269 C 149.014 109.545,148.730 109.922,148.633 110.106 C 148.444 110.462,148.495 110.413,149.400 109.380 C 149.696 109.042,149.888 108.766,149.827 108.766 C 149.765 108.766,149.511 108.992,149.263 109.269 M156.924 109.214 C 157.186 109.521,157.559 110.073,157.753 110.441 C 157.947 110.810,158.110 111.031,158.115 110.933 C 158.133 110.573,157.486 109.535,156.974 109.102 L 156.449 108.658 156.924 109.214 M186.354 109.399 C 185.875 109.747,185.336 110.224,185.156 110.460 C 184.977 110.695,185.128 110.622,185.492 110.296 C 185.855 109.971,186.505 109.494,186.935 109.236 C 187.365 108.979,187.606 108.767,187.471 108.767 C 187.336 108.766,186.833 109.051,186.354 109.399 M221.887 109.184 C 221.519 109.413,220.967 109.890,220.661 110.244 C 220.125 110.865,220.132 110.863,220.884 110.188 C 221.313 109.803,221.965 109.330,222.334 109.136 C 222.702 108.942,222.903 108.780,222.781 108.776 C 222.658 108.771,222.256 108.955,221.887 109.184 M287.649 109.355 C 287.526 109.680,287.466 109.986,287.517 110.037 C 287.567 110.087,287.716 109.822,287.846 109.447 C 288.137 108.614,287.962 108.533,287.649 109.355 M293.668 109.271 C 293.250 109.548,292.692 110.226,292.428 110.776 C 292.126 111.403,291.751 111.832,291.423 111.924 C 290.918 112.066,290.917 112.072,291.385 112.094 C 291.960 112.120,292.574 111.572,292.574 111.033 C 292.574 110.437,293.196 109.696,294.095 109.221 C 294.548 108.982,294.808 108.781,294.673 108.776 C 294.538 108.770,294.085 108.993,293.668 109.271 M319.765 108.924 C 320.042 108.977,320.494 108.977,320.771 108.924 C 321.047 108.870,320.821 108.827,320.268 108.827 C 319.715 108.827,319.489 108.870,319.765 108.924 M339.079 109.214 C 337.536 110.154,337.647 113.233,339.224 113.233 C 339.343 113.233,339.147 112.939,338.788 112.580 C 337.747 111.539,338.057 109.948,339.444 109.215 C 339.891 108.979,340.156 108.782,340.034 108.777 C 339.911 108.772,339.481 108.968,339.079 109.214 M318.133 109.337 C 317.707 109.678,317.707 109.681,318.146 109.479 C 318.392 109.366,318.744 109.217,318.928 109.149 C 319.217 109.042,319.216 109.022,318.915 109.007 C 318.723 108.997,318.372 109.146,318.133 109.337 M344.188 109.501 C 344.605 109.782,345.181 110.435,345.466 110.952 C 345.918 111.771,346.078 111.888,346.695 111.857 L 347.404 111.821 346.700 111.733 C 346.172 111.667,345.927 111.479,345.723 110.986 C 345.436 110.292,344.101 108.989,343.678 108.989 C 343.541 108.989,343.771 109.219,344.188 109.501 M238.627 109.904 C 238.430 110.283,238.309 110.634,238.358 110.682 C 238.406 110.731,238.613 110.420,238.817 109.992 C 239.277 109.028,239.118 108.955,238.627 109.904 M299.888 109.826 C 300.288 110.201,300.614 110.636,300.614 110.791 C 300.614 110.947,300.678 111.010,300.756 110.932 C 300.966 110.722,300.245 109.716,299.665 109.409 C 299.314 109.224,299.382 109.349,299.888 109.826 M322.390 109.474 C 322.635 109.610,322.992 109.833,323.182 109.970 C 323.373 110.106,323.292 109.992,323.002 109.715 C 322.713 109.439,322.356 109.216,322.210 109.220 C 322.063 109.223,322.144 109.338,322.390 109.474 M192.741 109.506 C 192.741 109.544,193.068 109.871,193.467 110.232 L 194.193 110.888 193.537 110.162 C 192.926 109.485,192.741 109.333,192.741 109.506 M316.795 110.384 C 314.514 113.095,314.619 119.088,316.993 121.663 C 317.856 122.600,319.081 123.428,319.291 123.218 C 319.345 123.164,319.081 122.992,318.704 122.836 C 315.125 121.354,314.184 113.422,317.201 110.162 C 317.457 109.886,317.607 109.659,317.535 109.659 C 317.463 109.659,317.130 109.985,316.795 110.384 M142.784 110.312 C 142.807 110.609,142.976 110.893,143.160 110.943 C 143.382 111.003,143.409 110.971,143.242 110.849 C 143.103 110.747,142.933 110.463,142.866 110.218 C 142.769 109.866,142.751 109.885,142.784 110.312 M310.075 112.116 C 310.075 113.283,310.113 113.760,310.159 113.177 C 310.205 112.594,310.205 111.639,310.159 111.055 C 310.113 110.472,310.075 110.949,310.075 112.116 M333.014 111.353 C 333.023 111.957,333.112 112.652,333.213 112.898 C 333.321 113.160,333.348 112.745,333.279 111.893 C 333.137 110.137,332.992 109.843,333.014 111.353 M109.740 111.502 C 109.413 112.024,108.806 112.985,108.391 113.638 C 105.237 118.599,105.275 118.468,106.700 119.424 C 107.284 119.815,109.520 121.344,111.669 122.821 C 122.876 130.523,122.641 130.395,121.366 128.113 C 120.696 126.915,120.528 126.797,120.864 127.761 C 121.393 129.278,120.575 128.849,114.461 124.398 C 113.356 123.594,111.816 122.550,111.039 122.080 C 109.147 120.935,105.863 118.582,105.863 118.372 C 105.863 118.199,108.033 114.582,109.519 112.277 C 110.507 110.746,110.426 110.714,112.151 113.305 C 113.585 115.458,114.152 116.180,113.672 115.243 C 113.075 114.076,110.713 110.553,110.528 110.553 C 110.422 110.553,110.067 110.980,109.740 111.502 M163.794 113.568 C 163.795 115.165,163.830 115.789,163.873 114.954 C 163.916 114.120,163.916 112.814,163.873 112.051 C 163.829 111.288,163.794 111.971,163.794 113.568 M252.688 110.967 C 252.753 111.072,252.913 111.438,253.043 111.780 C 253.172 112.122,253.334 112.347,253.401 112.280 C 253.533 112.147,252.884 110.776,252.689 110.776 C 252.624 110.776,252.623 110.862,252.688 110.967 M147.515 111.446 L 146.845 111.617 147.446 111.643 C 147.777 111.658,148.109 111.569,148.185 111.446 C 148.261 111.323,148.292 111.235,148.254 111.249 C 148.216 111.264,147.884 111.352,147.515 111.446 M243.252 111.791 C 243.110 112.104,242.997 112.481,243.001 112.629 C 243.006 112.777,243.159 112.556,243.340 112.138 C 243.722 111.259,243.641 110.938,243.252 111.791 M258.218 111.446 C 258.229 112.026,258.581 112.980,258.589 112.451 C 258.592 112.205,258.509 111.803,258.403 111.558 C 258.286 111.284,258.214 111.241,258.218 111.446 M158.176 112.116 C 158.176 112.546,158.222 112.722,158.278 112.507 C 158.334 112.292,158.334 111.940,158.278 111.725 C 158.222 111.510,158.176 111.686,158.176 112.116 M228.974 112.786 C 228.974 113.216,229.020 113.392,229.076 113.177 C 229.133 112.962,229.133 112.610,229.076 112.395 C 229.020 112.180,228.974 112.356,228.974 112.786 M301.087 112.830 C 301.063 113.383,300.975 113.438,300.000 113.515 L 298.939 113.599 300.007 113.639 C 301.129 113.682,301.425 113.434,301.217 112.632 C 301.147 112.362,301.104 112.428,301.087 112.830 M324.993 112.451 C 324.993 112.574,325.128 113.026,325.293 113.456 C 325.459 113.886,325.597 114.087,325.601 113.903 C 325.605 113.719,325.470 113.266,325.301 112.898 C 325.132 112.529,324.994 112.328,324.993 112.451 M268.220 112.952 L 274.240 113.017 274.322 114.466 L 274.405 115.915 274.388 114.406 L 274.372 112.898 268.286 112.892 L 262.200 112.887 268.220 112.952 M154.266 113.171 C 154.663 113.220,155.366 113.221,155.830 113.172 C 156.293 113.124,155.969 113.084,155.109 113.083 C 154.249 113.082,153.870 113.121,154.266 113.171 M283.494 120.045 L 283.529 127.192 281.144 127.255 C 278.819 127.316,278.757 127.305,278.651 126.808 C 278.552 126.346,278.546 126.350,278.579 126.857 C 278.615 127.410,278.634 127.415,280.983 127.478 C 284.212 127.564,283.964 128.260,283.689 119.877 L 283.460 112.898 283.494 120.045 M150.810 113.393 C 151.147 113.444,151.700 113.444,152.038 113.393 C 152.376 113.342,152.099 113.300,151.424 113.300 C 150.748 113.300,150.472 113.342,150.810 113.393 M219.195 120.380 C 219.195 124.372,219.226 126.005,219.263 124.009 C 219.300 122.013,219.300 118.747,219.263 116.750 C 219.226 114.754,219.195 116.387,219.195 120.380 M234.376 117.365 C 234.376 119.698,234.409 120.623,234.449 119.419 C 234.489 118.215,234.489 116.305,234.449 115.175 C 234.408 114.046,234.375 115.031,234.376 117.365 M295.872 113.618 C 296.274 113.668,296.877 113.667,297.212 113.616 C 297.548 113.565,297.219 113.524,296.482 113.525 C 295.745 113.527,295.471 113.568,295.872 113.618 M333.454 113.523 C 333.433 113.948,334.150 114.974,335.046 115.801 L 336.013 116.694 335.090 115.689 C 334.581 115.137,334.008 114.383,333.814 114.015 C 333.621 113.646,333.459 113.425,333.454 113.523 M204.231 120.603 C 204.231 124.350,204.261 125.882,204.299 124.009 C 204.336 122.136,204.336 119.070,204.299 117.197 C 204.261 115.324,204.231 116.857,204.231 120.603 M237.487 115.690 C 237.487 116.734,237.526 117.161,237.573 116.639 C 237.620 116.117,237.620 115.262,237.573 114.740 C 237.526 114.218,237.487 114.645,237.487 115.690 M343.607 114.126 C 344.552 114.367,345.363 114.367,344.612 114.126 C 344.305 114.028,343.802 113.949,343.495 113.952 C 342.994 113.955,343.005 113.973,343.607 114.126 M195.244 115.829 C 195.219 116.827,195.148 117.983,195.087 118.398 L 194.976 119.151 195.208 118.416 C 195.335 118.011,195.406 116.856,195.364 115.847 L 195.289 114.015 195.244 115.829 M200.860 116.136 C 200.860 117.180,200.898 117.607,200.945 117.085 C 200.992 116.563,200.992 115.709,200.945 115.187 C 200.898 114.665,200.860 115.092,200.860 116.136 M258.925 115.913 C 258.925 116.834,258.964 117.211,259.012 116.750 C 259.061 116.290,259.061 115.536,259.012 115.075 C 258.964 114.615,258.925 114.992,258.925 115.913 M278.371 118.035 C 278.371 120.000,278.405 120.774,278.447 119.755 C 278.488 118.736,278.488 117.128,278.446 116.181 C 278.404 115.235,278.370 116.069,278.371 118.035 M289.416 115.256 L 288.889 115.716 289.559 115.324 C 290.441 114.807,290.454 114.796,290.179 114.796 C 290.050 114.796,289.706 115.003,289.416 115.256 M347.913 115.348 C 348.933 115.931,349.845 116.883,350.465 118.011 C 350.675 118.392,350.847 118.604,350.848 118.481 C 350.855 117.500,348.137 114.786,347.161 114.799 C 347.049 114.800,347.387 115.048,347.913 115.348 M183.425 116.025 C 183.427 116.639,183.470 116.863,183.522 116.524 C 183.573 116.185,183.571 115.682,183.518 115.407 C 183.465 115.133,183.423 115.410,183.425 116.025 M143.607 116.248 C 143.064 116.801,142.671 117.253,142.732 117.253 C 142.794 117.253,143.288 116.801,143.830 116.248 C 144.373 115.695,144.766 115.243,144.705 115.243 C 144.644 115.243,144.149 115.695,143.607 116.248 M229.243 121.273 C 229.243 124.405,229.274 125.687,229.313 124.121 C 229.351 122.554,229.351 119.992,229.313 118.425 C 229.274 116.859,229.243 118.141,229.243 121.273 M113.903 116.092 C 113.903 116.190,113.995 116.366,114.108 116.482 C 114.221 116.599,114.936 117.800,115.697 119.151 C 117.195 121.814,120.368 126.857,120.545 126.857 C 120.605 126.857,120.484 126.596,120.275 126.277 C 119.651 125.325,116.978 120.883,115.482 118.314 C 114.156 116.034,113.903 115.679,113.903 116.092 M209.544 121.657 L 209.492 127.512 206.868 127.583 L 204.243 127.654 206.875 127.702 C 210.063 127.760,209.738 128.486,209.659 121.493 L 209.596 115.801 209.544 121.657 M82.795 118.400 C 82.031 119.153,80.804 120.325,80.067 121.003 C 79.330 121.682,77.412 123.502,75.805 125.049 C 74.198 126.596,71.509 129.150,69.831 130.726 C 68.152 132.301,66.778 133.683,66.778 133.797 C 66.778 133.920,70.885 134.003,76.996 134.003 C 87.987 134.002,94.249 133.826,94.249 133.518 C 94.249 133.412,93.847 132.664,93.356 131.855 C 92.864 131.046,92.462 130.354,92.462 130.316 C 92.462 130.252,91.440 128.545,89.075 124.660 C 88.502 123.718,87.760 122.446,87.427 121.831 C 86.169 119.516,84.599 117.030,84.395 117.030 C 84.278 117.030,83.558 117.646,82.795 118.400 M152.596 117.407 C 152.811 117.463,153.163 117.463,153.378 117.407 C 153.593 117.351,153.417 117.305,152.987 117.305 C 152.557 117.305,152.381 117.351,152.596 117.407 M298.869 117.415 C 301.033 117.484,301.264 117.532,301.355 117.934 C 301.436 118.289,301.449 118.277,301.426 117.871 C 301.397 117.378,301.330 117.364,298.939 117.352 L 296.482 117.340 298.869 117.415 M85.867 119.576 C 86.546 120.731,87.103 121.761,87.104 121.865 C 87.105 122.083,89.102 125.359,90.163 126.884 C 90.556 127.449,91.370 128.805,91.970 129.897 C 92.571 130.989,93.252 132.202,93.484 132.593 C 93.716 132.984,93.834 133.376,93.747 133.463 C 93.475 133.735,67.754 133.871,67.588 133.601 C 67.405 133.307,68.818 131.880,75.595 125.516 C 78.538 122.753,81.653 119.815,82.517 118.988 C 84.495 117.093,84.395 117.076,85.867 119.576 M246.748 117.644 C 248.998 117.680,252.616 117.680,254.788 117.643 C 256.961 117.607,255.120 117.577,250.698 117.577 C 246.276 117.577,244.498 117.607,246.748 117.644 M294.026 117.803 C 293.145 118.207,293.344 118.214,294.584 117.823 C 295.137 117.649,295.388 117.504,295.142 117.501 C 294.897 117.499,294.394 117.634,294.026 117.803 M292.367 118.735 C 291.644 119.653,291.905 123.060,292.697 123.060 C 292.759 123.060,292.655 122.763,292.468 122.401 C 291.907 121.317,292.017 119.353,292.675 118.694 C 292.977 118.393,293.135 118.146,293.027 118.146 C 292.918 118.146,292.621 118.411,292.367 118.735 M310.302 120.603 C 310.302 122.016,310.338 122.594,310.383 121.887 C 310.427 121.181,310.427 120.025,310.383 119.319 C 310.338 118.613,310.302 119.190,310.302 120.603 M306.507 121.273 C 306.507 122.808,306.543 123.437,306.586 122.669 C 306.630 121.901,306.630 120.645,306.586 119.877 C 306.543 119.109,306.507 119.738,306.507 121.273 M350.987 119.933 C 351.245 122.667,350.340 124.773,348.321 126.131 C 347.727 126.530,347.338 126.857,347.457 126.857 C 347.745 126.857,349.292 125.709,349.906 125.041 C 350.976 123.876,351.615 120.849,351.103 119.375 C 350.905 118.805,350.888 118.889,350.987 119.933 M157.684 120.252 C 157.352 121.124,157.417 121.262,157.815 120.527 C 158.004 120.179,158.104 119.838,158.036 119.771 C 157.968 119.703,157.810 119.919,157.684 120.252 M147.499 121.125 C 147.542 121.719,147.703 122.322,147.858 122.465 C 148.074 122.665,148.101 122.658,147.975 122.434 C 147.884 122.275,147.723 121.672,147.616 121.094 L 147.421 120.045 147.499 121.125 M253.626 120.339 C 253.564 120.440,253.809 120.479,254.171 120.426 C 254.534 120.372,254.830 120.290,254.830 120.243 C 254.830 120.072,253.737 120.160,253.626 120.339 M336.698 120.315 C 337.239 120.384,337.441 120.560,337.655 121.153 C 337.920 121.885,339.147 123.283,339.525 123.283 C 339.629 123.283,339.369 122.980,338.948 122.610 C 338.526 122.240,338.021 121.537,337.825 121.047 C 337.506 120.249,337.393 120.160,336.741 120.192 L 336.013 120.228 336.698 120.315 M200.064 120.944 C 199.995 121.186,199.871 121.586,199.788 121.831 C 199.705 122.077,199.800 121.996,200.000 121.650 C 200.200 121.305,200.324 120.906,200.277 120.763 C 200.229 120.620,200.133 120.701,200.064 120.944 M258.148 121.025 C 258.342 121.148,258.398 121.408,258.305 121.748 C 258.177 122.210,258.191 122.226,258.411 121.874 C 258.704 121.406,258.548 120.825,258.131 120.830 C 257.911 120.832,257.915 120.878,258.148 121.025 M192.965 122.208 C 192.412 122.711,192.161 123.018,192.406 122.888 C 192.827 122.666,194.278 121.262,194.067 121.282 C 194.014 121.287,193.518 121.704,192.965 122.208 M286.819 121.943 C 286.819 122.373,286.865 122.549,286.921 122.334 C 286.977 122.119,286.977 121.767,286.921 121.552 C 286.865 121.337,286.819 121.513,286.819 121.943 M323.939 121.999 L 323.283 122.725 324.009 122.069 C 324.686 121.457,324.837 121.273,324.665 121.273 C 324.626 121.273,324.300 121.600,323.939 121.999 M186.680 122.823 C 186.970 123.076,187.314 123.283,187.443 123.283 C 187.718 123.283,187.705 123.272,186.823 122.756 L 186.153 122.363 186.680 122.823 M257.845 122.836 C 257.761 123.099,257.244 123.886,256.695 124.583 L 255.698 125.851 256.626 124.849 C 257.574 123.824,258.298 122.657,258.105 122.464 C 258.046 122.405,257.929 122.572,257.845 122.836 M124.324 123.786 C 124.419 123.939,125.426 125.623,126.560 127.527 C 129.032 131.673,129.273 132.034,128.506 130.430 C 127.905 129.174,124.417 123.506,124.245 123.506 C 124.193 123.506,124.228 123.632,124.324 123.786 M341.429 123.670 C 341.951 123.717,342.806 123.717,343.328 123.670 C 343.850 123.623,343.423 123.584,342.379 123.584 C 341.334 123.584,340.907 123.623,341.429 123.670 M152.764 123.953 C 152.001 124.114,151.998 124.118,152.652 124.131 C 153.021 124.139,153.523 124.059,153.769 123.953 C 154.306 123.722,153.860 123.722,152.764 123.953 M334.089 124.364 C 334.338 124.712,334.717 125.140,334.933 125.313 C 335.149 125.486,334.986 125.201,334.571 124.679 C 333.719 123.607,333.403 123.400,334.089 124.364 M306.791 125.675 L 306.911 127.286 304.824 127.360 L 302.736 127.434 304.774 127.480 C 307.259 127.537,307.329 127.473,306.951 125.516 L 306.671 124.065 306.791 125.675 M300.614 125.799 C 299.939 126.422,299.596 126.819,299.853 126.682 C 300.110 126.545,300.648 126.126,301.049 125.751 C 301.921 124.936,301.947 124.931,301.980 125.572 C 301.999 125.939,302.033 125.971,302.107 125.691 C 302.386 124.628,301.842 124.667,300.614 125.799 M315.164 125.552 C 315.134 126.063,315.010 126.666,314.889 126.892 C 314.758 127.136,314.753 127.303,314.876 127.303 C 315.171 127.303,315.355 126.725,315.355 125.791 L 315.355 124.986 316.080 125.642 L 316.806 126.297 316.037 125.460 C 315.613 125.000,315.256 124.623,315.243 124.623 C 315.229 124.623,315.194 125.041,315.164 125.552 M143.135 125.480 C 143.383 125.829,143.763 126.256,143.978 126.430 C 144.194 126.603,144.031 126.318,143.616 125.796 C 142.764 124.724,142.448 124.517,143.135 125.480 M157.677 125.896 L 156.672 126.968 157.603 126.103 L 158.534 125.239 158.752 126.215 C 158.871 126.752,158.968 126.940,158.967 126.633 C 158.966 126.326,158.901 125.793,158.823 125.449 L 158.682 124.824 157.677 125.896 M163.995 125.851 C 163.996 126.466,164.040 126.690,164.091 126.351 C 164.142 126.011,164.141 125.509,164.088 125.234 C 164.035 124.960,163.993 125.237,163.995 125.851 M183.504 125.001 C 183.426 125.080,183.369 125.354,183.379 125.610 C 183.391 125.937,183.434 125.976,183.524 125.740 C 183.594 125.556,183.748 125.342,183.865 125.265 C 184.001 125.177,184.000 125.077,183.863 124.992 C 183.744 124.919,183.583 124.923,183.504 125.001 M194.417 127.423 C 193.855 127.693,193.837 127.724,194.305 127.611 C 194.612 127.537,194.959 127.387,195.075 127.278 C 195.365 127.008,195.206 127.043,194.417 127.423 M214.156 127.591 C 214.253 127.687,215.379 127.737,216.658 127.701 L 218.984 127.636 216.481 127.525 C 215.105 127.465,214.059 127.494,214.156 127.591 M251.926 127.527 C 251.466 127.674,251.447 127.709,251.815 127.724 C 252.060 127.735,252.412 127.646,252.596 127.527 C 252.988 127.274,252.716 127.274,251.926 127.527 M312.730 127.463 C 313.068 127.514,313.621 127.514,313.959 127.463 C 314.296 127.412,314.020 127.370,313.345 127.370 C 312.669 127.370,312.393 127.412,312.730 127.463 M168.320 127.806 C 168.377 127.898,169.568 127.973,170.966 127.973 C 172.364 127.973,173.555 127.898,173.612 127.806 C 173.668 127.714,172.478 127.638,170.966 127.638 C 169.454 127.638,168.263 127.714,168.320 127.806 M341.206 127.691 C 341.851 127.736,342.906 127.736,343.551 127.691 C 344.196 127.646,343.668 127.609,342.379 127.609 C 341.089 127.609,340.561 127.646,341.206 127.691 M249.749 127.904 C 249.964 127.960,250.315 127.960,250.530 127.904 C 250.745 127.848,250.570 127.802,250.140 127.802 C 249.710 127.802,249.534 127.848,249.749 127.904 M294.420 127.910 C 294.759 127.961,295.262 127.960,295.536 127.907 C 295.811 127.854,295.533 127.812,294.919 127.814 C 294.305 127.815,294.080 127.859,294.420 127.910 M148.130 128.350 C 148.345 128.407,148.696 128.407,148.911 128.350 C 149.126 128.294,148.950 128.248,148.520 128.248 C 148.090 128.248,147.915 128.294,148.130 128.350 M150.031 128.578 C 150.308 128.631,150.710 128.629,150.924 128.573 C 151.137 128.517,150.910 128.474,150.419 128.476 C 149.927 128.479,149.753 128.524,150.031 128.578 M183.676 132.887 C 183.676 134.913,183.709 135.743,183.751 134.729 C 183.792 133.716,183.792 132.058,183.751 131.044 C 183.709 130.031,183.676 130.860,183.676 132.887 M129.426 132.328 C 131.806 136.091,132.778 137.995,132.390 138.139 C 132.233 138.197,129.894 138.272,127.192 138.306 L 122.278 138.368 127.303 138.415 C 130.067 138.442,132.470 138.374,132.642 138.265 C 133.017 138.027,131.423 134.727,130.074 132.949 C 129.091 131.654,128.857 131.430,129.426 132.328 M181.857 136.844 C 182.196 136.895,182.699 136.894,182.973 136.841 C 183.248 136.788,182.970 136.746,182.356 136.747 C 181.742 136.749,181.517 136.792,181.857 136.844 M106.588 138.637 C 108.277 138.675,111.041 138.675,112.730 138.637 C 114.419 138.599,113.037 138.568,109.659 138.568 C 106.281 138.568,104.899 138.599,106.588 138.637 M383.321 200.503 C 382.276 203.472,380.600 205.300,377.979 206.329 C 377.388 206.562,376.866 206.867,376.819 207.008 C 376.730 207.275,378.295 208.045,378.503 207.836 C 378.622 207.717,377.593 207.259,377.205 207.259 C 377.090 207.259,376.996 207.158,376.996 207.035 C 376.996 206.912,377.122 206.811,377.275 206.810 C 379.180 206.795,382.773 203.339,383.368 200.949 C 383.568 200.146,383.848 200.169,384.031 201.002 C 384.111 201.370,384.287 201.738,384.421 201.821 C 384.580 201.919,384.613 201.835,384.515 201.579 C 384.432 201.363,384.304 200.945,384.229 200.649 C 384.072 200.024,383.521 199.935,383.321 200.503 M384.937 202.816 C 385.370 203.652,387.005 205.324,387.743 205.684 C 388.273 205.943,388.273 205.943,387.716 205.476 C 386.510 204.465,385.427 203.321,385.122 202.736 C 384.946 202.398,384.751 202.122,384.690 202.122 C 384.628 202.122,384.740 202.434,384.937 202.816 M388.493 206.133 C 388.635 206.363,390.159 206.901,390.292 206.768 C 390.341 206.719,389.928 206.511,389.375 206.306 C 388.822 206.101,388.425 206.023,388.493 206.133 M389.303 207.501 C 388.415 207.856,388.917 207.955,389.858 207.610 C 390.348 207.431,390.535 207.289,390.285 207.288 C 390.039 207.288,389.597 207.383,389.303 207.501 M387.463 208.591 C 386.434 209.273,385.310 210.521,384.843 211.502 L 384.577 212.060 384.965 211.502 C 385.484 210.754,387.467 208.783,388.163 208.322 C 388.470 208.118,388.663 207.947,388.592 207.940 C 388.521 207.934,388.013 208.226,387.463 208.591 M379.676 208.603 C 381.107 209.823,381.618 210.322,382.074 210.944 C 382.344 211.312,382.569 211.481,382.572 211.320 C 382.581 210.949,380.403 208.756,379.669 208.396 L 379.118 208.127 379.676 208.603 M382.951 212.736 C 383.143 213.299,383.349 213.711,383.409 213.651 C 383.555 213.504,383.045 211.986,382.798 211.834 C 382.691 211.768,382.759 212.174,382.951 212.736 M384.149 212.714 C 384.023 213.046,383.927 213.487,383.935 213.694 C 383.944 213.901,384.095 213.677,384.271 213.196 C 384.447 212.716,384.544 212.275,384.485 212.216 C 384.427 212.158,384.275 212.382,384.149 212.714 " stroke="none" fill="#1a3a6e" fill-rule="evenodd"></path><path id="path4" d="M87.859 85.595 C 87.655 85.994,87.218 86.672,86.889 87.102 C 86.560 87.532,86.004 88.386,85.654 89.001 C 85.010 90.130,84.174 91.453,81.580 95.444 C 80.793 96.654,80.189 97.684,80.237 97.732 C 80.286 97.781,81.473 96.006,82.876 93.789 C 85.687 89.347,88.172 85.531,88.444 85.238 C 88.540 85.134,89.247 86.014,90.015 87.192 C 90.782 88.371,91.458 89.336,91.515 89.336 C 91.573 89.336,91.458 89.087,91.259 88.784 C 91.060 88.481,90.438 87.476,89.877 86.551 C 88.744 84.686,88.406 84.526,87.859 85.595 M91.904 90.229 C 92.095 90.597,92.301 90.899,92.362 90.899 C 92.424 90.899,92.318 90.597,92.127 90.229 C 91.937 89.860,91.731 89.559,91.669 89.559 C 91.608 89.559,91.713 89.860,91.904 90.229 M92.657 91.457 C 92.778 91.703,93.040 92.105,93.240 92.351 L 93.604 92.797 93.384 92.351 C 93.264 92.105,93.001 91.703,92.801 91.457 L 92.438 91.011 92.657 91.457 M93.736 93.348 C 93.799 93.590,94.006 93.917,94.196 94.074 C 94.488 94.316,94.483 94.248,94.166 93.635 C 93.742 92.814,93.565 92.697,93.736 93.348 M87.927 94.077 C 87.628 94.479,86.767 95.841,86.014 97.104 C 85.262 98.368,84.483 99.649,84.285 99.952 C 84.086 100.255,83.980 100.503,84.048 100.503 C 84.116 100.503,84.741 99.573,85.438 98.437 C 87.575 94.948,88.324 93.806,88.478 93.804 C 88.611 93.803,92.598 100.239,93.803 102.401 C 94.730 104.065,96.534 107.088,96.948 107.673 C 97.175 107.994,98.128 109.602,99.066 111.247 C 100.003 112.892,100.878 114.338,101.009 114.461 C 101.140 114.584,101.017 114.283,100.735 113.791 C 100.453 113.300,99.722 111.999,99.111 110.901 C 98.499 109.802,97.573 108.244,97.053 107.439 C 95.812 105.519,94.923 104.030,93.893 102.150 C 93.431 101.305,92.330 99.458,91.448 98.046 C 90.565 96.633,89.630 95.057,89.369 94.543 C 88.729 93.282,88.561 93.227,87.927 94.077 M94.498 94.584 C 94.740 95.212,96.324 97.832,96.409 97.747 C 96.463 97.693,96.088 96.959,95.575 96.116 C 94.664 94.618,94.324 94.135,94.498 94.584 M168.263 95.233 C 168.197 95.405,168.184 95.883,168.234 96.294 C 168.318 96.973,168.329 96.955,168.362 96.099 L 168.398 95.157 171.022 95.086 L 173.646 95.015 171.015 94.967 C 168.928 94.929,168.359 94.984,168.263 95.233 M203.779 95.890 C 203.715 96.056,203.694 96.885,203.733 97.733 L 203.802 99.274 203.911 97.431 C 204.020 95.591,203.997 95.322,203.779 95.890 M282.826 97.934 C 282.826 99.040,282.863 99.520,282.910 99.002 C 282.957 98.483,282.958 97.579,282.912 96.992 C 282.865 96.404,282.827 96.829,282.826 97.934 M312.828 96.421 C 313.641 96.469,314.247 96.613,314.301 96.771 C 314.351 96.920,314.382 96.890,314.369 96.706 C 314.350 96.447,314.017 96.367,312.896 96.355 L 311.446 96.340 312.828 96.421 M209.344 98.269 C 209.344 99.190,209.383 99.567,209.431 99.107 C 209.479 98.646,209.479 97.892,209.431 97.432 C 209.383 96.971,209.344 97.348,209.344 98.269 M278.150 100.838 C 278.150 103.171,278.183 104.096,278.224 102.892 C 278.264 101.688,278.264 99.778,278.223 98.648 C 278.183 97.519,278.150 98.504,278.150 100.838 M309.859 99.832 C 309.859 101.491,309.894 102.169,309.937 101.340 C 309.980 100.511,309.980 99.154,309.937 98.325 C 309.894 97.496,309.859 98.174,309.859 99.832 M168.262 100.391 C 168.263 102.111,168.298 102.785,168.340 101.889 C 168.383 100.993,168.382 99.586,168.340 98.762 C 168.297 97.938,168.262 98.671,168.262 100.391 M314.294 98.157 C 314.297 98.649,314.342 98.824,314.396 98.546 C 314.449 98.268,314.447 97.866,314.391 97.652 C 314.335 97.439,314.292 97.666,314.294 98.157 M78.628 100.223 C 77.860 101.421,76.584 103.406,75.793 104.634 C 74.320 106.924,71.696 111.100,71.366 111.680 C 71.215 111.947,71.242 111.945,71.517 111.669 C 71.702 111.485,72.687 109.978,73.707 108.319 C 74.726 106.661,76.423 103.998,77.477 102.401 C 79.328 99.596,80.263 98.046,80.103 98.046 C 80.061 98.046,79.397 99.026,78.628 100.223 M96.685 98.453 C 96.820 98.707,97.041 98.982,97.176 99.065 C 97.351 99.174,97.350 99.086,97.174 98.755 C 97.038 98.502,96.817 98.226,96.682 98.143 C 96.507 98.035,96.508 98.123,96.685 98.453 M98.590 101.385 C 99.274 102.546,99.943 103.601,100.078 103.730 C 100.424 104.061,98.059 100.016,97.668 99.609 C 97.492 99.425,97.907 100.224,98.590 101.385 M314.565 103.685 C 314.573 108.143,314.653 108.426,315.548 107.166 L 316.076 106.421 315.540 107.035 C 314.715 107.979,314.699 107.919,314.626 103.573 L 314.557 99.497 314.565 103.685 M283.066 105.304 C 283.066 108.130,283.098 109.255,283.137 107.804 C 283.176 106.354,283.176 104.042,283.137 102.667 C 283.098 101.292,283.066 102.479,283.066 105.304 M82.560 102.568 C 81.192 104.702,79.880 106.979,80.018 106.979 C 80.071 106.979,80.836 105.798,81.718 104.355 C 82.601 102.912,83.482 101.505,83.676 101.228 C 83.871 100.952,83.965 100.726,83.886 100.726 C 83.807 100.726,83.210 101.555,82.560 102.568 M205.193 101.111 C 205.592 101.160,206.245 101.160,206.644 101.111 C 207.044 101.061,206.717 101.021,205.918 101.021 C 205.120 101.021,204.793 101.061,205.193 101.111 M109.523 102.792 C 109.062 103.559,108.215 104.891,107.641 105.751 C 107.068 106.611,106.431 107.666,106.227 108.096 C 106.023 108.526,105.983 108.691,106.139 108.462 C 106.422 108.045,109.240 103.655,110.029 102.401 C 110.610 101.477,110.694 101.533,112.062 103.773 C 112.727 104.861,113.381 105.851,113.516 105.974 C 113.778 106.212,113.710 106.091,111.996 103.238 C 110.668 101.029,110.591 101.015,109.523 102.792 M173.606 103.629 C 173.606 104.428,173.646 104.754,173.696 104.355 C 173.745 103.956,173.745 103.303,173.696 102.903 C 173.646 102.504,173.606 102.831,173.606 103.629 M152.491 103.793 C 153.016 103.840,153.820 103.840,154.277 103.792 C 154.735 103.744,154.305 103.705,153.322 103.706 C 152.339 103.707,151.965 103.746,152.491 103.793 M189.894 104.013 C 190.232 104.064,190.784 104.064,191.122 104.013 C 191.460 103.961,191.184 103.920,190.508 103.920 C 189.832 103.920,189.556 103.961,189.894 104.013 M100.280 104.206 C 100.281 104.481,101.131 105.863,101.299 105.863 C 101.372 105.863,101.206 105.486,100.929 105.025 C 100.303 103.985,100.279 103.955,100.280 104.206 M168.225 115.732 C 168.197 122.205,168.250 127.547,168.342 127.604 C 168.494 127.698,168.491 119.138,168.336 108.208 C 168.303 105.874,168.253 109.260,168.225 115.732 M187.270 104.403 C 186.407 104.798,186.808 104.804,187.828 104.411 C 188.258 104.245,188.459 104.107,188.275 104.103 C 188.090 104.099,187.638 104.234,187.270 104.403 M225.070 104.237 C 225.469 104.287,226.122 104.287,226.521 104.237 C 226.921 104.188,226.594 104.147,225.796 104.147 C 224.997 104.147,224.671 104.188,225.070 104.237 M310.083 107.091 C 310.083 108.811,310.118 109.485,310.160 108.589 C 310.203 107.693,310.203 106.286,310.160 105.462 C 310.117 104.638,310.082 105.371,310.083 107.091 M178.894 104.443 C 180.764 104.608,182.865 104.621,182.769 104.467 C 182.712 104.375,181.641 104.316,180.389 104.337 C 179.137 104.357,178.465 104.405,178.894 104.443 M246.513 104.457 C 246.791 104.511,247.193 104.509,247.406 104.453 C 247.620 104.397,247.393 104.353,246.901 104.356 C 246.410 104.358,246.235 104.404,246.513 104.457 M249.302 104.453 C 249.517 104.509,249.869 104.509,250.084 104.453 C 250.299 104.397,250.123 104.351,249.693 104.351 C 249.263 104.351,249.087 104.397,249.302 104.453 M204.231 104.809 C 204.171 104.966,204.151 106.951,204.188 109.220 L 204.254 113.345 204.305 109.057 L 204.355 104.770 205.416 104.687 L 206.477 104.603 205.409 104.563 C 204.715 104.537,204.303 104.623,204.231 104.809 M207.873 104.680 C 208.149 104.733,208.601 104.733,208.878 104.680 C 209.154 104.627,208.928 104.583,208.375 104.583 C 207.822 104.583,207.596 104.627,207.873 104.680 M214.517 104.665 C 216.078 104.829,218.376 104.845,218.280 104.690 C 218.223 104.598,217.202 104.539,216.011 104.558 C 214.821 104.578,214.149 104.626,214.517 104.665 M295.757 104.685 C 296.217 104.733,296.971 104.733,297.432 104.685 C 297.892 104.637,297.515 104.598,296.594 104.598 C 295.673 104.598,295.296 104.637,295.757 104.685 M213.805 106.198 C 213.806 106.935,213.847 107.209,213.897 106.808 C 213.947 106.406,213.946 105.803,213.895 105.468 C 213.844 105.132,213.803 105.461,213.805 106.198 M324.868 105.624 C 329.676 108.017,331.785 114.986,329.774 121.831 C 329.702 122.077,329.862 121.826,330.131 121.273 C 330.727 120.045,330.952 116.226,330.572 113.776 C 329.951 109.775,327.050 105.907,324.065 105.098 C 323.758 105.015,324.119 105.252,324.868 105.624 M218.451 106.575 C 218.437 107.274,218.501 107.893,218.593 107.950 C 218.685 108.007,218.730 107.586,218.694 107.014 C 218.589 105.383,218.480 105.185,218.451 106.575 M182.952 106.700 C 182.910 107.769,183.098 107.879,183.717 107.147 L 184.143 106.644 183.655 107.056 C 183.168 107.468,183.167 107.468,183.079 106.610 L 182.990 105.751 182.952 106.700 M346.734 106.186 C 348.526 107.581,350.131 109.922,349.900 110.805 C 349.840 111.035,349.882 111.223,349.993 111.223 C 351.229 111.223,348.579 106.953,346.809 106.092 C 346.306 105.847,346.303 105.851,346.734 106.186 M101.528 106.365 C 101.987 107.170,103.046 108.766,103.122 108.766 C 103.227 108.766,103.093 108.526,102.217 107.147 C 101.624 106.211,101.107 105.626,101.528 106.365 M303.550 106.873 C 305.557 109.061,305.892 110.512,306.099 117.923 C 306.186 121.055,306.338 124.070,306.437 124.623 C 306.578 125.415,306.596 125.273,306.523 123.953 C 306.472 123.032,306.368 120.017,306.294 117.253 C 306.102 110.181,305.562 108.232,303.291 106.427 C 302.986 106.184,303.102 106.385,303.550 106.873 M113.880 106.644 C 114.257 107.373,114.566 107.777,114.564 107.538 C 114.564 107.415,114.357 107.063,114.106 106.756 C 113.803 106.385,113.727 106.348,113.880 106.644 M240.857 107.035 L 240.201 107.761 240.927 107.105 C 241.603 106.494,241.755 106.309,241.583 106.309 C 241.544 106.309,241.218 106.636,240.857 107.035 M255.500 107.091 C 255.916 107.521,256.308 107.873,256.369 107.873 C 256.430 107.873,256.140 107.521,255.723 107.091 C 255.306 106.661,254.915 106.309,254.854 106.309 C 254.792 106.309,255.083 106.661,255.500 107.091 M86.549 108.382 C 85.691 109.146,84.083 110.628,82.975 111.675 C 81.867 112.723,80.357 114.123,79.620 114.786 C 78.883 115.450,76.648 117.548,74.653 119.448 C 69.159 124.681,68.828 124.763,71.793 120.156 C 72.465 119.112,73.789 117.002,74.736 115.466 C 76.171 113.139,78.023 110.230,79.677 107.705 C 79.859 107.429,79.955 107.203,79.893 107.203 C 79.757 107.203,76.073 112.855,75.162 114.461 C 74.813 115.075,73.742 116.751,72.782 118.185 C 70.871 121.040,68.941 124.404,69.115 124.577 C 69.273 124.735,71.768 122.536,75.390 119.048 C 79.112 115.464,84.367 110.567,86.649 108.557 L 88.281 107.119 88.972 107.515 L 89.664 107.912 89.242 107.446 C 88.606 106.743,88.248 106.867,86.549 108.382 M232.831 107.873 C 233.021 108.241,233.228 108.543,233.289 108.543 C 233.350 108.543,233.245 108.241,233.054 107.873 C 232.864 107.504,232.657 107.203,232.596 107.203 C 232.535 107.203,232.640 107.504,232.831 107.873 M89.894 108.033 C 90.204 108.333,95.848 112.229,96.259 112.428 C 96.849 112.713,95.769 111.900,93.132 110.072 C 90.661 108.359,89.424 107.581,89.894 108.033 M115.141 108.934 C 116.290 110.931,117.746 113.233,117.860 113.233 C 117.923 113.233,117.829 113.007,117.651 112.730 C 117.474 112.454,116.746 111.248,116.035 110.050 C 115.323 108.853,114.694 107.873,114.636 107.873 C 114.578 107.873,114.805 108.350,115.141 108.934 M338.448 109.525 C 337.141 110.832,337.779 113.457,339.402 113.456 C 339.656 113.456,339.516 113.308,339.031 113.065 C 337.561 112.328,337.547 110.257,339.006 109.276 C 339.423 108.996,339.639 108.766,339.486 108.766 C 339.333 108.766,338.865 109.108,338.448 109.525 M103.318 109.269 C 103.819 110.135,104.362 110.776,104.594 110.773 C 104.878 110.770,105.960 109.236,105.795 109.070 C 105.740 109.015,105.485 109.326,105.228 109.762 C 104.646 110.749,104.457 110.750,103.853 109.771 C 103.412 109.059,102.939 108.615,103.318 109.269 M317.092 109.874 C 315.158 111.577,314.317 115.553,315.228 118.687 C 315.704 120.322,315.878 120.242,315.433 118.593 C 314.543 115.297,315.500 111.290,317.550 109.726 C 318.081 109.321,318.422 108.989,318.307 108.989 C 318.192 108.989,317.645 109.388,317.092 109.874 M220.756 109.939 L 220.101 110.664 220.826 110.008 C 221.226 109.648,221.552 109.321,221.552 109.283 C 221.552 109.110,221.368 109.262,220.756 109.939 M344.963 109.904 C 345.323 110.345,345.662 110.669,345.717 110.623 C 345.772 110.576,345.478 110.215,345.063 109.820 L 344.309 109.101 344.963 109.904 M323.618 110.218 C 324.035 110.648,324.426 110.999,324.487 110.999 C 324.549 110.999,324.258 110.648,323.841 110.218 C 323.425 109.788,323.034 109.436,322.972 109.436 C 322.911 109.436,323.201 109.788,323.618 110.218 M278.365 112.116 C 278.365 113.529,278.401 114.107,278.445 113.400 C 278.490 112.694,278.490 111.538,278.445 110.832 C 278.401 110.126,278.365 110.704,278.365 112.116 M257.638 110.329 C 257.720 110.637,257.880 111.039,257.994 111.223 C 258.138 111.456,258.156 111.387,258.052 110.999 C 257.970 110.692,257.809 110.290,257.695 110.106 C 257.552 109.873,257.534 109.941,257.638 110.329 M108.936 112.395 C 107.234 115.121,107.065 115.414,107.334 115.172 C 107.446 115.071,108.148 114.022,108.894 112.840 C 110.563 110.196,110.519 110.209,111.647 111.995 C 112.154 112.798,112.630 113.456,112.704 113.456 C 112.777 113.456,112.690 113.230,112.509 112.954 C 112.328 112.677,111.855 111.924,111.459 111.279 C 110.526 109.762,110.601 109.728,108.936 112.395 M333.291 111.334 C 333.292 112.071,333.334 112.346,333.384 111.945 C 333.433 111.543,333.432 110.940,333.381 110.605 C 333.330 110.269,333.290 110.597,333.291 111.334 M292.025 111.192 C 291.941 111.458,291.636 111.679,291.279 111.734 L 290.676 111.826 291.282 111.859 C 291.846 111.890,292.577 111.151,292.277 110.852 C 292.217 110.792,292.104 110.945,292.025 111.192 M173.628 115.690 C 173.628 118.085,173.661 119.065,173.701 117.867 C 173.741 116.669,173.741 114.710,173.701 113.512 C 173.661 112.314,173.628 113.294,173.628 115.690 M234.123 112.674 C 234.125 113.289,234.168 113.513,234.219 113.174 C 234.271 112.834,234.269 112.332,234.216 112.057 C 234.163 111.783,234.121 112.060,234.123 112.674 M283.286 115.801 C 283.286 118.012,283.320 118.887,283.360 117.744 C 283.401 116.602,283.401 114.793,283.360 113.724 C 283.319 112.655,283.286 113.590,283.286 115.801 M70.531 112.954 C 69.335 114.774,69.188 115.020,69.291 115.020 C 69.389 115.020,69.704 114.570,70.898 112.730 C 71.117 112.393,71.248 112.116,71.189 112.116 C 71.130 112.116,70.834 112.493,70.531 112.954 M158.365 112.724 C 158.348 113.207,158.270 113.222,155.388 113.289 L 152.429 113.359 155.395 113.407 C 158.451 113.458,158.833 113.348,158.498 112.514 C 158.434 112.357,158.375 112.451,158.365 112.724 M96.817 112.735 C 97.220 113.142,101.419 115.913,101.633 115.913 C 101.934 115.913,101.891 115.617,101.519 115.118 C 101.209 114.704,101.201 114.709,101.331 115.224 C 101.456 115.719,101.350 115.680,100.036 114.751 C 98.420 113.609,96.479 112.392,96.817 112.735 M229.219 114.238 C 229.220 115.098,229.260 115.422,229.309 114.959 C 229.357 114.495,229.356 113.792,229.307 113.395 C 229.258 112.999,229.218 113.378,229.219 114.238 M253.713 113.294 C 253.713 113.555,253.452 113.677,252.764 113.739 L 251.815 113.825 252.771 113.864 C 253.678 113.901,254.256 113.479,253.852 113.074 C 253.776 112.998,253.713 113.097,253.713 113.294 M262.299 115.187 L 262.312 117.365 263.597 117.383 L 264.882 117.401 263.661 117.316 L 262.439 117.231 262.363 115.120 L 262.286 113.008 262.299 115.187 M274.106 114.238 C 274.107 114.975,274.149 115.249,274.199 114.848 C 274.248 114.447,274.247 113.844,274.196 113.508 C 274.145 113.172,274.105 113.501,274.106 114.238 M209.367 119.486 C 209.367 122.864,209.398 124.246,209.436 122.557 C 209.473 120.868,209.473 118.104,209.436 116.415 C 209.398 114.726,209.367 116.108,209.367 119.486 M237.696 114.461 C 237.698 115.075,237.742 115.300,237.793 114.961 C 237.844 114.621,237.843 114.119,237.790 113.844 C 237.737 113.569,237.695 113.847,237.696 114.461 M297.990 113.610 C 298.205 113.666,298.557 113.666,298.772 113.610 C 298.987 113.554,298.811 113.508,298.381 113.508 C 297.951 113.508,297.775 113.554,297.990 113.610 M310.301 115.801 C 310.302 117.152,310.339 117.676,310.383 116.966 C 310.427 116.255,310.427 115.149,310.382 114.509 C 310.337 113.868,310.301 114.450,310.301 115.801 M113.185 114.405 C 113.424 114.805,114.047 115.860,114.568 116.750 C 115.448 118.252,116.043 119.012,115.442 117.867 C 114.851 116.742,112.963 113.680,112.860 113.680 C 112.799 113.680,112.945 114.006,113.185 114.405 M258.705 115.690 C 258.705 116.734,258.743 117.161,258.790 116.639 C 258.837 116.117,258.837 115.262,258.790 114.740 C 258.743 114.218,258.705 114.645,258.705 115.690 M200.639 116.136 C 200.639 117.303,200.677 117.781,200.723 117.197 C 200.769 116.614,200.769 115.659,200.723 115.075 C 200.677 114.492,200.639 114.969,200.639 116.136 M218.969 119.821 C 218.970 123.015,219.001 124.291,219.039 122.656 C 219.077 121.021,219.077 118.408,219.039 116.849 C 219.001 115.290,218.969 116.628,218.969 119.821 M119.056 115.355 C 119.332 115.846,119.654 116.348,119.771 116.471 C 120.105 116.822,119.341 115.407,118.926 114.908 C 118.722 114.662,118.780 114.863,119.056 115.355 M195.497 116.136 C 195.497 117.058,195.536 117.434,195.584 116.974 C 195.632 116.513,195.632 115.759,195.584 115.299 C 195.536 114.838,195.497 115.215,195.497 116.136 M347.038 115.140 C 347.452 115.319,347.854 115.463,347.932 115.458 C 348.222 115.442,346.944 114.812,346.622 114.813 C 346.438 114.813,346.625 114.961,347.038 115.140 M325.928 116.695 C 325.929 117.677,325.968 118.052,326.015 117.526 C 326.062 117.001,326.062 116.197,326.014 115.739 C 325.966 115.282,325.927 115.712,325.928 116.695 M106.729 115.969 C 106.583 116.245,106.317 116.723,106.139 117.030 C 105.829 117.565,105.831 117.570,106.191 117.141 C 106.636 116.612,107.261 115.466,107.105 115.466 C 107.044 115.466,106.875 115.692,106.729 115.969 M274.278 116.371 C 274.268 116.684,274.140 117.061,273.992 117.208 C 273.789 117.412,273.788 117.476,273.988 117.476 C 274.291 117.476,274.583 116.519,274.411 116.090 C 274.348 115.931,274.288 116.058,274.278 116.371 M163.777 117.588 C 163.778 118.325,163.820 118.600,163.869 118.198 C 163.919 117.797,163.918 117.194,163.867 116.858 C 163.816 116.522,163.775 116.851,163.777 117.588 M349.501 116.856 C 349.795 117.189,350.219 117.992,350.443 118.641 C 350.684 119.337,350.854 119.612,350.858 119.310 C 350.868 118.629,350.147 117.249,349.493 116.696 L 348.967 116.251 349.501 116.856 M237.689 117.365 C 237.691 117.856,237.737 118.031,237.791 117.753 C 237.844 117.475,237.842 117.073,237.786 116.859 C 237.730 116.646,237.686 116.873,237.689 117.365 M66.798 118.973 C 66.043 120.177,65.265 121.387,65.069 121.664 C 64.874 121.940,64.780 122.166,64.860 122.166 C 65.067 122.166,68.401 117.015,68.276 116.889 C 68.218 116.832,67.554 117.770,66.798 118.973 M82.851 118.077 L 81.630 119.347 82.933 118.188 C 84.558 116.742,84.448 116.724,85.539 118.593 C 86.041 119.453,86.505 120.156,86.570 120.156 C 86.722 120.156,85.351 117.711,84.911 117.197 C 84.402 116.603,84.173 116.701,82.851 118.077 M156.045 117.192 L 158.321 117.268 158.414 118.044 L 158.506 118.820 158.482 117.981 L 158.459 117.141 156.114 117.128 L 153.769 117.115 156.045 117.192 M269.068 117.418 C 269.712 117.463,270.768 117.463,271.413 117.418 C 272.058 117.372,271.530 117.336,270.240 117.336 C 268.950 117.336,268.423 117.372,269.068 117.418 M120.574 117.811 C 120.695 118.057,120.957 118.459,121.157 118.705 L 121.521 119.151 121.302 118.705 C 121.181 118.459,120.919 118.057,120.719 117.811 L 120.355 117.365 120.574 117.811 M105.565 117.849 C 104.998 118.416,106.030 119.368,109.730 121.691 C 110.822 122.377,109.036 121.013,107.360 119.881 C 105.918 118.906,105.635 118.618,105.710 118.202 C 105.808 117.659,105.792 117.621,105.565 117.849 M292.144 118.735 C 291.787 119.188,291.688 119.611,291.715 120.577 L 291.749 121.831 291.882 120.459 C 291.969 119.570,292.166 118.920,292.441 118.616 C 292.675 118.358,292.808 118.146,292.736 118.146 C 292.665 118.146,292.398 118.411,292.144 118.735 M115.757 118.760 C 116.750 120.530,118.422 123.283,118.504 123.283 C 118.563 123.283,118.340 122.806,118.008 122.222 C 116.741 119.996,115.877 118.593,115.772 118.593 C 115.712 118.593,115.705 118.668,115.757 118.760 M325.654 118.854 C 325.640 119.059,325.570 119.411,325.500 119.636 C 325.378 120.023,325.384 120.024,325.626 119.647 C 325.767 119.428,325.836 119.076,325.781 118.865 C 325.690 118.519,325.677 118.518,325.654 118.854 M345.346 119.076 C 345.689 119.363,346.118 120.050,346.300 120.603 C 346.578 121.447,346.612 121.485,346.512 120.838 C 346.364 119.888,345.888 119.135,345.226 118.804 C 344.832 118.608,344.858 118.666,345.346 119.076 M163.784 120.715 C 163.785 121.697,163.824 122.072,163.871 121.546 C 163.918 121.021,163.918 120.217,163.870 119.760 C 163.822 119.302,163.783 119.732,163.784 120.715 M121.727 119.710 C 122.313 120.855,126.208 127.303,126.314 127.303 C 126.449 127.303,126.342 127.112,123.862 122.943 C 122.032 119.865,121.034 118.354,121.727 119.710 M80.171 120.663 C 79.491 121.306,77.192 123.490,75.062 125.516 C 72.932 127.543,71.088 129.266,70.965 129.344 C 70.505 129.637,66.332 133.872,66.332 134.046 C 66.332 134.145,70.628 134.203,75.879 134.173 L 85.427 134.120 76.103 134.059 C 70.665 134.024,66.778 133.913,66.778 133.794 C 66.778 133.682,68.152 132.301,69.831 130.726 C 71.509 129.150,74.198 126.596,75.805 125.049 C 78.120 122.822,81.045 120.109,81.723 119.561 C 81.775 119.520,81.724 119.488,81.612 119.491 C 81.499 119.493,80.851 120.021,80.171 120.663 M141.887 121.050 C 141.887 121.725,141.929 122.002,141.980 121.664 C 142.031 121.326,142.031 120.773,141.980 120.436 C 141.929 120.098,141.887 120.374,141.887 121.050 M315.802 120.294 C 315.800 120.768,317.865 123.036,318.314 123.053 C 318.407 123.057,318.064 122.683,317.553 122.222 C 317.042 121.762,316.439 121.083,316.213 120.715 C 315.987 120.346,315.803 120.157,315.802 120.294 M350.922 120.938 C 350.924 121.429,350.970 121.604,351.023 121.326 C 351.077 121.048,351.075 120.646,351.019 120.433 C 350.963 120.219,350.919 120.447,350.922 120.938 M87.102 121.273 C 87.353 121.764,87.608 122.166,87.670 122.166 C 87.731 122.166,87.576 121.764,87.326 121.273 C 87.075 120.782,86.820 120.380,86.758 120.380 C 86.697 120.380,86.852 120.782,87.102 121.273 M173.534 124.110 C 173.473 126.100,173.501 127.650,173.596 127.555 C 173.692 127.459,173.742 125.830,173.707 123.936 L 173.645 120.491 173.534 124.110 M337.467 121.161 C 337.467 121.606,338.347 122.814,338.849 123.058 L 339.363 123.308 338.879 122.883 C 338.612 122.649,338.185 122.116,337.930 121.698 C 337.675 121.280,337.467 121.039,337.467 121.161 M244.556 122.055 C 244.973 122.485,245.364 122.836,245.425 122.836 C 245.487 122.836,245.196 122.485,244.779 122.055 C 244.363 121.625,243.972 121.273,243.910 121.273 C 243.849 121.273,244.139 121.625,244.556 122.055 M234.331 124.358 L 234.283 127.331 231.846 127.261 C 230.507 127.223,229.457 127.267,229.515 127.359 C 229.709 127.672,234.285 127.556,234.408 127.235 C 234.470 127.075,234.489 125.693,234.450 124.164 L 234.379 121.385 234.331 124.358 M278.588 123.953 C 278.588 125.366,278.624 125.944,278.669 125.237 C 278.713 124.531,278.713 123.375,278.669 122.669 C 278.624 121.963,278.588 122.540,278.588 123.953 M299.943 122.222 C 299.615 122.671,299.561 122.827,299.802 122.631 C 300.168 122.334,300.722 121.496,300.552 121.496 C 300.510 121.496,300.236 121.823,299.943 122.222 M323.730 122.316 C 323.238 122.756,323.037 123.013,323.283 122.885 C 323.697 122.671,324.931 121.485,324.718 121.506 C 324.666 121.511,324.221 121.875,323.730 122.316 M345.779 122.567 L 345.270 123.395 345.834 122.768 C 346.145 122.423,346.399 122.047,346.399 121.931 C 346.399 121.602,346.323 121.679,345.779 122.567 M350.552 122.911 C 350.338 124.054,349.234 125.419,347.909 126.178 C 347.263 126.549,346.840 126.853,346.969 126.854 C 348.320 126.866,351.544 122.994,350.802 122.252 C 350.743 122.193,350.631 122.490,350.552 122.911 M63.084 124.902 C 62.250 126.284,61.151 128.018,60.641 128.755 C 59.670 130.158,58.564 131.964,58.796 131.767 C 59.079 131.526,61.890 127.247,63.218 125.035 C 64.924 122.192,64.814 122.390,64.698 122.390 C 64.644 122.390,63.918 123.520,63.084 124.902 M87.772 122.538 C 87.772 122.653,87.885 122.860,88.022 122.997 C 88.160 123.134,88.687 123.949,89.195 124.806 C 91.545 128.778,92.285 129.983,92.376 129.983 C 92.530 129.983,91.816 128.663,90.805 127.080 C 90.294 126.281,89.589 125.126,89.236 124.511 C 88.482 123.200,87.772 122.242,87.772 122.538 M283.416 124.780 C 283.355 126.157,283.384 127.203,283.481 127.106 C 283.578 127.009,283.627 125.883,283.592 124.604 L 283.526 122.278 283.416 124.780 M328.999 123.341 C 328.707 123.848,328.008 124.771,327.447 125.392 L 326.425 126.521 327.378 125.628 C 328.306 124.759,329.795 122.685,329.617 122.508 C 329.569 122.459,329.291 122.834,328.999 123.341 M333.222 122.520 C 333.224 122.771,334.067 124.176,334.216 124.176 C 334.275 124.176,334.108 123.800,333.844 123.339 C 333.253 122.307,333.221 122.265,333.222 122.520 M163.779 123.953 C 163.779 124.752,163.819 125.078,163.869 124.679 C 163.919 124.280,163.919 123.626,163.869 123.227 C 163.819 122.828,163.779 123.155,163.779 123.953 M310.540 124.846 L 310.553 127.192 312.559 127.257 C 314.894 127.333,315.131 127.174,315.131 125.540 L 315.131 124.532 316.061 125.415 L 316.991 126.298 316.124 125.235 C 315.116 124.000,314.772 123.992,314.857 125.206 C 314.984 127.028,314.923 127.080,312.678 127.080 L 310.680 127.080 310.603 124.791 L 310.527 122.501 310.540 124.846 M112.116 123.141 C 112.116 123.202,112.418 123.467,112.786 123.730 C 113.155 123.992,113.456 124.157,113.456 124.095 C 113.456 124.034,113.155 123.769,112.786 123.506 C 112.418 123.244,112.116 123.080,112.116 123.141 M118.837 123.962 C 119.956 125.690,121.943 129.109,121.943 129.306 C 121.943 129.599,121.802 129.596,121.231 129.291 C 120.896 129.112,120.814 129.112,120.925 129.293 C 121.129 129.622,122.400 130.271,122.549 130.121 C 122.674 129.997,122.231 129.179,120.206 125.787 C 119.525 124.645,118.858 123.644,118.724 123.562 C 118.591 123.479,118.641 123.659,118.837 123.962 M248.069 123.668 C 248.465 123.717,249.169 123.718,249.632 123.669 C 250.095 123.621,249.771 123.581,248.911 123.580 C 248.051 123.579,247.672 123.618,248.069 123.668 M294.417 123.884 C 294.631 123.940,294.983 123.940,295.198 123.884 C 295.413 123.828,295.237 123.782,294.807 123.782 C 294.377 123.782,294.202 123.828,294.417 123.884 M341.653 123.891 C 342.052 123.941,342.705 123.941,343.104 123.891 C 343.504 123.842,343.177 123.801,342.379 123.801 C 341.580 123.801,341.253 123.842,341.653 123.891 M113.680 124.251 C 113.680 124.360,115.718 125.893,116.639 126.477 C 117.521 127.037,117.398 126.737,116.498 126.134 C 116.082 125.856,115.278 125.297,114.711 124.892 C 114.144 124.486,113.680 124.198,113.680 124.251 M300.845 125.390 L 299.848 126.521 300.875 125.551 C 301.591 124.875,301.939 124.672,302.023 124.881 C 302.106 125.092,302.148 125.069,302.160 124.804 C 302.193 124.100,301.846 124.255,300.845 125.390 M256.044 125.126 L 255.388 125.851 256.114 125.196 C 256.790 124.584,256.942 124.400,256.770 124.400 C 256.731 124.400,256.405 124.726,256.044 125.126 M334.338 124.470 C 334.338 124.508,334.665 124.835,335.064 125.196 L 335.790 125.851 335.134 125.126 C 334.523 124.449,334.338 124.297,334.338 124.470 M157.454 125.851 C 156.911 126.404,156.518 126.857,156.579 126.857 C 156.641 126.857,157.135 126.404,157.677 125.851 C 158.220 125.299,158.613 124.846,158.552 124.846 C 158.491 124.846,157.996 125.299,157.454 125.851 M214.052 126.130 L 214.070 127.415 216.583 127.426 L 219.096 127.438 216.650 127.363 L 214.204 127.289 214.119 126.066 L 214.034 124.844 214.052 126.130 M288.107 124.916 C 288.107 124.955,288.434 125.281,288.833 125.642 L 289.559 126.298 288.903 125.572 C 288.291 124.896,288.107 124.744,288.107 124.916 M306.644 126.393 C 306.644 126.828,306.513 127.081,306.253 127.149 C 305.959 127.226,305.987 127.258,306.365 127.277 C 306.796 127.299,306.868 127.191,306.868 126.521 C 306.868 126.092,306.817 125.740,306.756 125.740 C 306.695 125.740,306.644 126.034,306.644 126.393 M183.458 131.323 C 183.458 134.333,183.489 135.564,183.528 134.059 C 183.567 132.554,183.567 130.092,183.528 128.587 C 183.489 127.083,183.458 128.314,183.458 131.323 M302.457 126.857 C 302.508 127.045,302.832 127.207,303.200 127.227 C 303.762 127.257,303.775 127.247,303.294 127.149 C 302.987 127.086,302.653 126.919,302.551 126.778 C 302.428 126.607,302.397 126.633,302.457 126.857 M163.948 127.239 C 163.932 127.709,163.824 127.737,161.753 127.807 L 159.576 127.880 161.760 127.926 C 163.997 127.974,164.398 127.820,164.081 127.031 C 164.018 126.874,163.958 126.967,163.948 127.239 M340.427 127.463 C 340.767 127.515,341.269 127.513,341.544 127.460 C 341.819 127.407,341.541 127.365,340.927 127.367 C 340.313 127.369,340.088 127.412,340.427 127.463 M342.769 127.465 C 343.169 127.514,343.822 127.514,344.221 127.465 C 344.620 127.415,344.294 127.375,343.495 127.375 C 342.697 127.375,342.370 127.415,342.769 127.465 M293.977 127.691 C 294.564 127.737,295.468 127.737,295.987 127.690 C 296.505 127.643,296.025 127.605,294.919 127.606 C 293.814 127.606,293.389 127.645,293.977 127.691 M321.106 127.688 C 321.505 127.738,322.158 127.738,322.557 127.688 C 322.956 127.639,322.630 127.598,321.831 127.598 C 321.033 127.598,320.706 127.639,321.106 127.688 M118.967 127.991 C 119.244 128.326,120.603 129.182,120.603 129.021 C 120.603 128.968,120.176 128.644,119.654 128.300 C 119.132 127.956,118.823 127.817,118.967 127.991 M248.300 127.908 C 248.577 127.961,248.979 127.959,249.193 127.903 C 249.407 127.847,249.179 127.804,248.688 127.806 C 248.197 127.809,248.022 127.854,248.300 127.908 M190.010 128.135 C 190.411 128.185,191.014 128.184,191.350 128.133 C 191.685 128.082,191.357 128.041,190.620 128.042 C 189.883 128.044,189.608 128.085,190.010 128.135 M149.800 128.358 C 150.196 128.407,150.900 128.408,151.363 128.360 C 151.826 128.311,151.502 128.271,150.642 128.270 C 149.782 128.269,149.403 128.308,149.800 128.358 M127.754 129.872 C 129.012 132.127,130.890 135.120,131.048 135.120 C 131.101 135.120,130.944 134.793,130.699 134.394 C 130.455 133.995,129.600 132.581,128.800 131.252 C 127.191 128.577,126.591 127.786,127.754 129.872 M92.462 130.244 C 92.462 130.321,92.864 131.046,93.356 131.855 C 94.559 133.836,94.607 133.773,91.848 133.827 L 89.447 133.874 91.777 133.947 C 94.857 134.043,94.883 134.030,94.122 132.718 C 93.336 131.364,92.462 130.062,92.462 130.244 M57.948 133.044 C 57.606 133.633,56.689 135.082,55.910 136.265 C 53.908 139.306,53.786 139.150,58.124 139.090 L 61.753 139.041 58.236 138.973 C 54.187 138.895,54.325 139.022,55.836 136.771 C 57.413 134.424,58.765 132.169,58.659 132.063 C 58.610 132.014,58.289 132.455,57.948 133.044 M131.770 136.683 L 132.446 138.023 129.149 138.072 L 125.851 138.121 128.967 138.191 C 132.952 138.279,132.830 138.340,131.996 136.688 C 131.622 135.949,131.267 135.343,131.205 135.343 C 131.144 135.343,131.398 135.946,131.770 136.683 M178.281 136.460 C 178.350 136.714,178.744 136.800,179.917 136.814 L 181.463 136.832 180.017 136.746 C 179.222 136.698,178.485 136.539,178.381 136.392 C 178.247 136.205,178.217 136.225,178.281 136.460 M110.177 138.414 C 112.488 138.450,116.206 138.450,118.440 138.414 C 120.674 138.378,118.783 138.348,114.238 138.348 C 109.693 138.348,107.865 138.378,110.177 138.414 M93.091 138.637 C 95.094 138.674,98.310 138.674,100.237 138.637 C 102.164 138.600,100.525 138.570,96.594 138.570 C 92.663 138.570,91.087 138.600,93.091 138.637 M67.296 138.861 C 70.099 138.896,74.622 138.896,77.346 138.861 C 80.071 138.825,77.778 138.796,72.250 138.796 C 66.723 138.796,64.493 138.825,67.296 138.861 M383.368 200.949 C 382.773 203.339,379.180 206.795,377.275 206.810 C 376.794 206.813,376.971 207.204,377.517 207.341 C 379.976 207.958,383.473 211.617,383.473 213.572 C 383.473 213.784,383.573 213.959,383.696 213.959 C 383.819 213.959,383.920 213.793,383.920 213.590 C 383.920 211.610,388.271 207.259,390.251 207.259 C 390.906 207.259,390.642 206.866,389.892 206.725 C 387.744 206.322,383.920 202.410,383.920 200.616 C 383.920 200.092,383.522 200.332,383.368 200.949 " stroke="none" fill="#2a5aa0" fill-rule="evenodd"></path></g>
</svg>
